<?xml version="1.0" encoding="utf-8"?>
<svg xmlns="http://www.w3.org/2000/svg" xmlns:xlink="http://www.w3.org/1999/xlink" width="600" height="400" viewBox="0 0 2400 1600">
<defs>
  <clipPath id="clip390">
    <rect x="0" y="0" width="2400" height="1600"/>
  </clipPath>
</defs>
<path clip-path="url(#clip390)" d="
M0 1600 L2400 1600 L2400 0 L0 0  Z
  " fill="#ffffff" fill-rule="evenodd" fill-opacity="1"/>
<defs>
  <clipPath id="clip391">
    <rect x="480" y="0" width="1681" height="1600"/>
  </clipPath>
</defs>
<path clip-path="url(#clip390)" d="
M262.551 1423.18 L2352.76 1423.18 L2352.76 47.2441 L262.551 47.2441  Z
  " fill="#ffffff" fill-rule="evenodd" fill-opacity="1"/>
<defs>
  <clipPath id="clip392">
    <rect x="262" y="47" width="2091" height="1377"/>
  </clipPath>
</defs>
<polyline clip-path="url(#clip392)" style="stroke:#000000; stroke-linecap:round; stroke-linejoin:round; stroke-width:2; stroke-opacity:0.1; fill:none" points="
  262.551,1423.18 262.551,47.2441 
  "/>
<polyline clip-path="url(#clip392)" style="stroke:#000000; stroke-linecap:round; stroke-linejoin:round; stroke-width:2; stroke-opacity:0.1; fill:none" points="
  754.364,1423.18 754.364,47.2441 
  "/>
<polyline clip-path="url(#clip392)" style="stroke:#000000; stroke-linecap:round; stroke-linejoin:round; stroke-width:2; stroke-opacity:0.1; fill:none" points="
  1246.18,1423.18 1246.18,47.2441 
  "/>
<polyline clip-path="url(#clip392)" style="stroke:#000000; stroke-linecap:round; stroke-linejoin:round; stroke-width:2; stroke-opacity:0.1; fill:none" points="
  1737.99,1423.18 1737.99,47.2441 
  "/>
<polyline clip-path="url(#clip392)" style="stroke:#000000; stroke-linecap:round; stroke-linejoin:round; stroke-width:2; stroke-opacity:0.1; fill:none" points="
  2229.8,1423.18 2229.8,47.2441 
  "/>
<polyline clip-path="url(#clip390)" style="stroke:#000000; stroke-linecap:round; stroke-linejoin:round; stroke-width:4; stroke-opacity:1; fill:none" points="
  262.551,1423.18 2352.76,1423.18 
  "/>
<polyline clip-path="url(#clip390)" style="stroke:#000000; stroke-linecap:round; stroke-linejoin:round; stroke-width:4; stroke-opacity:1; fill:none" points="
  262.551,1423.18 262.551,1404.28 
  "/>
<polyline clip-path="url(#clip390)" style="stroke:#000000; stroke-linecap:round; stroke-linejoin:round; stroke-width:4; stroke-opacity:1; fill:none" points="
  754.364,1423.18 754.364,1404.28 
  "/>
<polyline clip-path="url(#clip390)" style="stroke:#000000; stroke-linecap:round; stroke-linejoin:round; stroke-width:4; stroke-opacity:1; fill:none" points="
  1246.18,1423.18 1246.18,1404.28 
  "/>
<polyline clip-path="url(#clip390)" style="stroke:#000000; stroke-linecap:round; stroke-linejoin:round; stroke-width:4; stroke-opacity:1; fill:none" points="
  1737.99,1423.18 1737.99,1404.28 
  "/>
<polyline clip-path="url(#clip390)" style="stroke:#000000; stroke-linecap:round; stroke-linejoin:round; stroke-width:4; stroke-opacity:1; fill:none" points="
  2229.8,1423.18 2229.8,1404.28 
  "/>
<path clip-path="url(#clip390)" d="M262.551 1454.1 Q258.94 1454.1 257.111 1457.66 Q255.306 1461.2 255.306 1468.33 Q255.306 1475.44 257.111 1479.01 Q258.94 1482.55 262.551 1482.55 Q266.185 1482.55 267.991 1479.01 Q269.82 1475.44 269.82 1468.33 Q269.82 1461.2 267.991 1457.66 Q266.185 1454.1 262.551 1454.1 M262.551 1450.39 Q268.361 1450.39 271.417 1455 Q274.496 1459.58 274.496 1468.33 Q274.496 1477.06 271.417 1481.67 Q268.361 1486.25 262.551 1486.25 Q256.741 1486.25 253.662 1481.67 Q250.607 1477.06 250.607 1468.33 Q250.607 1459.58 253.662 1455 Q256.741 1450.39 262.551 1450.39 Z" fill="#000000" fill-rule="evenodd" fill-opacity="1" /><path clip-path="url(#clip390)" d="M733.137 1481.64 L749.457 1481.64 L749.457 1485.58 L727.512 1485.58 L727.512 1481.64 Q730.174 1478.89 734.758 1474.26 Q739.364 1469.61 740.545 1468.27 Q742.79 1465.74 743.67 1464.01 Q744.572 1462.25 744.572 1460.56 Q744.572 1457.8 742.628 1456.07 Q740.707 1454.33 737.605 1454.33 Q735.406 1454.33 732.952 1455.09 Q730.522 1455.86 727.744 1457.41 L727.744 1452.69 Q730.568 1451.55 733.022 1450.97 Q735.475 1450.39 737.512 1450.39 Q742.883 1450.39 746.077 1453.08 Q749.272 1455.77 749.272 1460.26 Q749.272 1462.39 748.461 1464.31 Q747.674 1466.2 745.568 1468.8 Q744.989 1469.47 741.887 1472.69 Q738.785 1475.88 733.137 1481.64 Z" fill="#000000" fill-rule="evenodd" fill-opacity="1" /><path clip-path="url(#clip390)" d="M769.271 1454.1 Q765.66 1454.1 763.832 1457.66 Q762.026 1461.2 762.026 1468.33 Q762.026 1475.44 763.832 1479.01 Q765.66 1482.55 769.271 1482.55 Q772.906 1482.55 774.711 1479.01 Q776.54 1475.44 776.54 1468.33 Q776.54 1461.2 774.711 1457.66 Q772.906 1454.1 769.271 1454.1 M769.271 1450.39 Q775.082 1450.39 778.137 1455 Q781.216 1459.58 781.216 1468.33 Q781.216 1477.06 778.137 1481.67 Q775.082 1486.25 769.271 1486.25 Q763.461 1486.25 760.383 1481.67 Q757.327 1477.06 757.327 1468.33 Q757.327 1459.58 760.383 1455 Q763.461 1450.39 769.271 1450.39 Z" fill="#000000" fill-rule="evenodd" fill-opacity="1" /><path clip-path="url(#clip390)" d="M1234.35 1455.09 L1222.54 1473.54 L1234.35 1473.54 L1234.35 1455.09 M1233.12 1451.02 L1239 1451.02 L1239 1473.54 L1243.93 1473.54 L1243.93 1477.43 L1239 1477.43 L1239 1485.58 L1234.35 1485.58 L1234.35 1477.43 L1218.75 1477.43 L1218.75 1472.92 L1233.12 1451.02 Z" fill="#000000" fill-rule="evenodd" fill-opacity="1" /><path clip-path="url(#clip390)" d="M1261.66 1454.1 Q1258.05 1454.1 1256.22 1457.66 Q1254.42 1461.2 1254.42 1468.33 Q1254.42 1475.44 1256.22 1479.01 Q1258.05 1482.55 1261.66 1482.55 Q1265.3 1482.55 1267.1 1479.01 Q1268.93 1475.44 1268.93 1468.33 Q1268.93 1461.2 1267.1 1457.66 Q1265.3 1454.1 1261.66 1454.1 M1261.66 1450.39 Q1267.47 1450.39 1270.53 1455 Q1273.61 1459.58 1273.61 1468.33 Q1273.61 1477.06 1270.53 1481.67 Q1267.47 1486.25 1261.66 1486.25 Q1255.85 1486.25 1252.77 1481.67 Q1249.72 1477.06 1249.72 1468.33 Q1249.72 1459.58 1252.77 1455 Q1255.85 1450.39 1261.66 1450.39 Z" fill="#000000" fill-rule="evenodd" fill-opacity="1" /><path clip-path="url(#clip390)" d="M1723.39 1466.44 Q1720.25 1466.44 1718.4 1468.59 Q1716.57 1470.74 1716.57 1474.49 Q1716.57 1478.22 1718.4 1480.39 Q1720.25 1482.55 1723.39 1482.55 Q1726.54 1482.55 1728.37 1480.39 Q1730.22 1478.22 1730.22 1474.49 Q1730.22 1470.74 1728.37 1468.59 Q1726.54 1466.44 1723.39 1466.44 M1732.68 1451.78 L1732.68 1456.04 Q1730.92 1455.21 1729.11 1454.77 Q1727.33 1454.33 1725.57 1454.33 Q1720.94 1454.33 1718.49 1457.45 Q1716.06 1460.58 1715.71 1466.9 Q1717.08 1464.89 1719.14 1463.82 Q1721.2 1462.73 1723.67 1462.73 Q1728.88 1462.73 1731.89 1465.9 Q1734.92 1469.05 1734.92 1474.49 Q1734.92 1479.82 1731.77 1483.03 Q1728.63 1486.25 1723.39 1486.25 Q1717.4 1486.25 1714.23 1481.67 Q1711.06 1477.06 1711.06 1468.33 Q1711.06 1460.14 1714.95 1455.28 Q1718.83 1450.39 1725.39 1450.39 Q1727.14 1450.39 1728.93 1450.74 Q1730.73 1451.09 1732.68 1451.78 Z" fill="#000000" fill-rule="evenodd" fill-opacity="1" /><path clip-path="url(#clip390)" d="M1752.98 1454.1 Q1749.37 1454.1 1747.54 1457.66 Q1745.73 1461.2 1745.73 1468.33 Q1745.73 1475.44 1747.54 1479.01 Q1749.37 1482.55 1752.98 1482.55 Q1756.61 1482.55 1758.42 1479.01 Q1760.25 1475.44 1760.25 1468.33 Q1760.25 1461.2 1758.42 1457.66 Q1756.61 1454.1 1752.98 1454.1 M1752.98 1450.39 Q1758.79 1450.39 1761.84 1455 Q1764.92 1459.58 1764.92 1468.33 Q1764.92 1477.06 1761.84 1481.67 Q1758.79 1486.25 1752.98 1486.25 Q1747.17 1486.25 1744.09 1481.67 Q1741.03 1477.06 1741.03 1468.33 Q1741.03 1459.58 1744.09 1455 Q1747.17 1450.39 1752.98 1450.39 Z" fill="#000000" fill-rule="evenodd" fill-opacity="1" /><path clip-path="url(#clip390)" d="M2214.68 1469.17 Q2211.34 1469.17 2209.42 1470.95 Q2207.52 1472.73 2207.52 1475.86 Q2207.52 1478.98 2209.42 1480.77 Q2211.34 1482.55 2214.68 1482.55 Q2218.01 1482.55 2219.93 1480.77 Q2221.85 1478.96 2221.85 1475.86 Q2221.85 1472.73 2219.93 1470.95 Q2218.03 1469.17 2214.68 1469.17 M2210 1467.18 Q2206.99 1466.44 2205.3 1464.38 Q2203.63 1462.32 2203.63 1459.35 Q2203.63 1455.21 2206.57 1452.8 Q2209.54 1450.39 2214.68 1450.39 Q2219.84 1450.39 2222.78 1452.8 Q2225.72 1455.21 2225.72 1459.35 Q2225.72 1462.32 2224.03 1464.38 Q2222.36 1466.44 2219.37 1467.18 Q2222.75 1467.96 2224.63 1470.26 Q2226.53 1472.55 2226.53 1475.86 Q2226.53 1480.88 2223.45 1483.57 Q2220.39 1486.25 2214.68 1486.25 Q2208.96 1486.25 2205.88 1483.57 Q2202.82 1480.88 2202.82 1475.86 Q2202.82 1472.55 2204.72 1470.26 Q2206.62 1467.96 2210 1467.18 M2208.29 1459.79 Q2208.29 1462.48 2209.95 1463.98 Q2211.64 1465.49 2214.68 1465.49 Q2217.68 1465.49 2219.37 1463.98 Q2221.09 1462.48 2221.09 1459.79 Q2221.09 1457.11 2219.37 1455.6 Q2217.68 1454.1 2214.68 1454.1 Q2211.64 1454.1 2209.95 1455.6 Q2208.29 1457.11 2208.29 1459.79 Z" fill="#000000" fill-rule="evenodd" fill-opacity="1" /><path clip-path="url(#clip390)" d="M2244.84 1454.1 Q2241.23 1454.1 2239.4 1457.66 Q2237.59 1461.2 2237.59 1468.33 Q2237.59 1475.44 2239.4 1479.01 Q2241.23 1482.55 2244.84 1482.55 Q2248.47 1482.55 2250.28 1479.01 Q2252.11 1475.44 2252.11 1468.33 Q2252.11 1461.2 2250.28 1457.66 Q2248.47 1454.1 2244.84 1454.1 M2244.84 1450.39 Q2250.65 1450.39 2253.7 1455 Q2256.78 1459.58 2256.78 1468.33 Q2256.78 1477.06 2253.7 1481.67 Q2250.65 1486.25 2244.84 1486.25 Q2239.03 1486.25 2235.95 1481.67 Q2232.89 1477.06 2232.89 1468.33 Q2232.89 1459.58 2235.95 1455 Q2239.03 1450.39 2244.84 1450.39 Z" fill="#000000" fill-rule="evenodd" fill-opacity="1" /><path clip-path="url(#clip390)" d="M967.868 1525.81 L967.868 1562.76 L975.634 1562.76 Q985.469 1562.76 990.021 1558.3 Q994.604 1553.85 994.604 1544.24 Q994.604 1534.69 990.021 1530.26 Q985.469 1525.81 975.634 1525.81 L967.868 1525.81 M961.439 1520.52 L974.648 1520.52 Q988.461 1520.52 994.922 1526.28 Q1001.38 1532.01 1001.38 1544.24 Q1001.38 1556.52 994.89 1562.28 Q988.397 1568.04 974.648 1568.04 L961.439 1568.04 L961.439 1520.52 Z" fill="#000000" fill-rule="evenodd" fill-opacity="1" /><path clip-path="url(#clip390)" d="M1027.58 1550.12 Q1020.48 1550.12 1017.74 1551.75 Q1015.01 1553.37 1015.01 1557.29 Q1015.01 1560.4 1017.04 1562.25 Q1019.11 1564.07 1022.64 1564.07 Q1027.51 1564.07 1030.44 1560.63 Q1033.4 1557.16 1033.4 1551.43 L1033.4 1550.12 L1027.58 1550.12 M1039.26 1547.71 L1039.26 1568.04 L1033.4 1568.04 L1033.4 1562.63 Q1031.4 1565.88 1028.41 1567.44 Q1025.41 1568.97 1021.09 1568.97 Q1015.61 1568.97 1012.36 1565.91 Q1009.15 1562.82 1009.15 1557.67 Q1009.15 1551.65 1013.16 1548.6 Q1017.2 1545.54 1025.19 1545.54 L1033.4 1545.54 L1033.4 1544.97 Q1033.4 1540.93 1030.73 1538.73 Q1028.09 1536.5 1023.28 1536.5 Q1020.23 1536.5 1017.33 1537.23 Q1014.43 1537.97 1011.76 1539.43 L1011.76 1534.02 Q1014.97 1532.78 1018 1532.17 Q1021.02 1531.54 1023.89 1531.54 Q1031.62 1531.54 1035.44 1535.55 Q1039.26 1539.56 1039.26 1547.71 Z" fill="#000000" fill-rule="evenodd" fill-opacity="1" /><path clip-path="url(#clip390)" d="M1066.15 1571.35 Q1063.67 1577.72 1061.32 1579.66 Q1058.96 1581.6 1055.01 1581.6 L1050.34 1581.6 L1050.34 1576.7 L1053.77 1576.7 Q1056.19 1576.7 1057.53 1575.56 Q1058.87 1574.41 1060.49 1570.14 L1061.54 1567.47 L1047.12 1532.4 L1053.33 1532.4 L1064.47 1560.28 L1075.61 1532.4 L1081.81 1532.4 L1066.15 1571.35 Z" fill="#000000" fill-rule="evenodd" fill-opacity="1" /><path clip-path="url(#clip390)" d="M1126.82 1550.12 Q1119.72 1550.12 1116.98 1551.75 Q1114.25 1553.37 1114.25 1557.29 Q1114.25 1560.4 1116.28 1562.25 Q1118.35 1564.07 1121.89 1564.07 Q1126.76 1564.07 1129.68 1560.63 Q1132.64 1557.16 1132.64 1551.43 L1132.64 1550.12 L1126.82 1550.12 M1138.5 1547.71 L1138.5 1568.04 L1132.64 1568.04 L1132.64 1562.63 Q1130.64 1565.88 1127.65 1567.44 Q1124.66 1568.97 1120.33 1568.97 Q1114.85 1568.97 1111.61 1565.91 Q1108.39 1562.82 1108.39 1557.67 Q1108.39 1551.65 1112.4 1548.6 Q1116.44 1545.54 1124.43 1545.54 L1132.64 1545.54 L1132.64 1544.97 Q1132.64 1540.93 1129.97 1538.73 Q1127.33 1536.5 1122.52 1536.5 Q1119.47 1536.5 1116.57 1537.23 Q1113.67 1537.97 1111 1539.43 L1111 1534.02 Q1114.22 1532.78 1117.24 1532.17 Q1120.26 1531.54 1123.13 1531.54 Q1130.86 1531.54 1134.68 1535.55 Q1138.5 1539.56 1138.5 1547.71 Z" fill="#000000" fill-rule="evenodd" fill-opacity="1" /><path clip-path="url(#clip390)" d="M1168.61 1518.52 L1168.61 1523.39 L1163.01 1523.39 Q1159.86 1523.39 1158.62 1524.66 Q1157.41 1525.93 1157.41 1529.24 L1157.41 1532.4 L1167.05 1532.4 L1167.05 1536.95 L1157.41 1536.95 L1157.41 1568.04 L1151.52 1568.04 L1151.52 1536.95 L1145.92 1536.95 L1145.92 1532.4 L1151.52 1532.4 L1151.52 1529.91 Q1151.52 1523.96 1154.29 1521.26 Q1157.06 1518.52 1163.07 1518.52 L1168.61 1518.52 Z" fill="#000000" fill-rule="evenodd" fill-opacity="1" /><path clip-path="url(#clip390)" d="M1178.16 1522.27 L1178.16 1532.4 L1190.22 1532.4 L1190.22 1536.95 L1178.16 1536.95 L1178.16 1556.3 Q1178.16 1560.66 1179.34 1561.9 Q1180.55 1563.14 1184.21 1563.14 L1190.22 1563.14 L1190.22 1568.04 L1184.21 1568.04 Q1177.43 1568.04 1174.85 1565.53 Q1172.27 1562.98 1172.27 1556.3 L1172.27 1536.95 L1167.97 1536.95 L1167.97 1532.4 L1172.27 1532.4 L1172.27 1522.27 L1178.16 1522.27 Z" fill="#000000" fill-rule="evenodd" fill-opacity="1" /><path clip-path="url(#clip390)" d="M1228.42 1548.76 L1228.42 1551.62 L1201.49 1551.62 Q1201.87 1557.67 1205.12 1560.85 Q1208.4 1564 1214.22 1564 Q1217.59 1564 1220.75 1563.17 Q1223.93 1562.35 1227.05 1560.69 L1227.05 1566.23 Q1223.9 1567.57 1220.59 1568.27 Q1217.28 1568.97 1213.87 1568.97 Q1205.34 1568.97 1200.34 1564 Q1195.38 1559.04 1195.38 1550.57 Q1195.38 1541.82 1200.09 1536.69 Q1204.83 1531.54 1212.85 1531.54 Q1220.05 1531.54 1224.22 1536.18 Q1228.42 1540.8 1228.42 1548.76 M1222.56 1547.04 Q1222.5 1542.23 1219.85 1539.37 Q1217.24 1536.5 1212.92 1536.5 Q1208.01 1536.5 1205.05 1539.27 Q1202.13 1542.04 1201.68 1547.07 L1222.56 1547.04 Z" fill="#000000" fill-rule="evenodd" fill-opacity="1" /><path clip-path="url(#clip390)" d="M1258.69 1537.87 Q1257.7 1537.3 1256.52 1537.04 Q1255.38 1536.76 1253.97 1536.76 Q1249.01 1536.76 1246.34 1540 Q1243.69 1543.22 1243.69 1549.27 L1243.69 1568.04 L1237.81 1568.04 L1237.81 1532.4 L1243.69 1532.4 L1243.69 1537.93 Q1245.54 1534.69 1248.5 1533.13 Q1251.46 1531.54 1255.69 1531.54 Q1256.3 1531.54 1257.03 1531.63 Q1257.76 1531.7 1258.65 1531.85 L1258.69 1537.87 Z" fill="#000000" fill-rule="evenodd" fill-opacity="1" /><path clip-path="url(#clip390)" d="M1291.21 1562.7 L1291.21 1581.6 L1285.33 1581.6 L1285.33 1532.4 L1291.21 1532.4 L1291.21 1537.81 Q1293.06 1534.62 1295.86 1533.1 Q1298.69 1531.54 1302.61 1531.54 Q1309.1 1531.54 1313.14 1536.69 Q1317.22 1541.85 1317.22 1550.25 Q1317.22 1558.65 1313.14 1563.81 Q1309.1 1568.97 1302.61 1568.97 Q1298.69 1568.97 1295.86 1567.44 Q1293.06 1565.88 1291.21 1562.7 M1311.14 1550.25 Q1311.14 1543.79 1308.47 1540.13 Q1305.82 1536.44 1301.18 1536.44 Q1296.53 1536.44 1293.86 1540.13 Q1291.21 1543.79 1291.21 1550.25 Q1291.21 1556.71 1293.86 1560.4 Q1296.53 1564.07 1301.18 1564.07 Q1305.82 1564.07 1308.47 1560.4 Q1311.14 1556.71 1311.14 1550.25 Z" fill="#000000" fill-rule="evenodd" fill-opacity="1" /><path clip-path="url(#clip390)" d="M1326.93 1518.52 L1332.78 1518.52 L1332.78 1568.04 L1326.93 1568.04 L1326.93 1518.52 Z" fill="#000000" fill-rule="evenodd" fill-opacity="1" /><path clip-path="url(#clip390)" d="M1361.24 1550.12 Q1354.14 1550.12 1351.4 1551.75 Q1348.66 1553.37 1348.66 1557.29 Q1348.66 1560.4 1350.7 1562.25 Q1352.77 1564.07 1356.3 1564.07 Q1361.17 1564.07 1364.1 1560.63 Q1367.06 1557.16 1367.06 1551.43 L1367.06 1550.12 L1361.24 1550.12 M1372.92 1547.71 L1372.92 1568.04 L1367.06 1568.04 L1367.06 1562.63 Q1365.06 1565.88 1362.06 1567.44 Q1359.07 1568.97 1354.74 1568.97 Q1349.27 1568.97 1346.02 1565.91 Q1342.81 1562.82 1342.81 1557.67 Q1342.81 1551.65 1346.82 1548.6 Q1350.86 1545.54 1358.85 1545.54 L1367.06 1545.54 L1367.06 1544.97 Q1367.06 1540.93 1364.39 1538.73 Q1361.75 1536.5 1356.94 1536.5 Q1353.88 1536.5 1350.99 1537.23 Q1348.09 1537.97 1345.42 1539.43 L1345.42 1534.02 Q1348.63 1532.78 1351.66 1532.17 Q1354.68 1531.54 1357.54 1531.54 Q1365.28 1531.54 1369.1 1535.55 Q1372.92 1539.56 1372.92 1547.71 Z" fill="#000000" fill-rule="evenodd" fill-opacity="1" /><path clip-path="url(#clip390)" d="M1414.61 1546.53 L1414.61 1568.04 L1408.76 1568.04 L1408.76 1546.72 Q1408.76 1541.66 1406.78 1539.14 Q1404.81 1536.63 1400.86 1536.63 Q1396.12 1536.63 1393.38 1539.65 Q1390.65 1542.68 1390.65 1547.9 L1390.65 1568.04 L1384.76 1568.04 L1384.76 1532.4 L1390.65 1532.4 L1390.65 1537.93 Q1392.75 1534.72 1395.58 1533.13 Q1398.44 1531.54 1402.17 1531.54 Q1408.31 1531.54 1411.46 1535.36 Q1414.61 1539.14 1414.61 1546.53 Z" fill="#000000" fill-rule="evenodd" fill-opacity="1" /><path clip-path="url(#clip390)" d="M1432.09 1522.27 L1432.09 1532.4 L1444.15 1532.4 L1444.15 1536.95 L1432.09 1536.95 L1432.09 1556.3 Q1432.09 1560.66 1433.26 1561.9 Q1434.47 1563.14 1438.13 1563.14 L1444.15 1563.14 L1444.15 1568.04 L1438.13 1568.04 Q1431.36 1568.04 1428.78 1565.53 Q1426.2 1562.98 1426.2 1556.3 L1426.2 1536.95 L1421.9 1536.95 L1421.9 1532.4 L1426.2 1532.4 L1426.2 1522.27 L1432.09 1522.27 Z" fill="#000000" fill-rule="evenodd" fill-opacity="1" /><path clip-path="url(#clip390)" d="M1451.85 1532.4 L1457.71 1532.4 L1457.71 1568.04 L1451.85 1568.04 L1451.85 1532.4 M1451.85 1518.52 L1457.71 1518.52 L1457.71 1525.93 L1451.85 1525.93 L1451.85 1518.52 Z" fill="#000000" fill-rule="evenodd" fill-opacity="1" /><path clip-path="url(#clip390)" d="M1499.6 1546.53 L1499.6 1568.04 L1493.74 1568.04 L1493.74 1546.72 Q1493.74 1541.66 1491.77 1539.14 Q1489.79 1536.63 1485.85 1536.63 Q1481.1 1536.63 1478.37 1539.65 Q1475.63 1542.68 1475.63 1547.9 L1475.63 1568.04 L1469.74 1568.04 L1469.74 1532.4 L1475.63 1532.4 L1475.63 1537.93 Q1477.73 1534.72 1480.56 1533.13 Q1483.43 1531.54 1487.15 1531.54 Q1493.29 1531.54 1496.44 1535.36 Q1499.6 1539.14 1499.6 1546.53 Z" fill="#000000" fill-rule="evenodd" fill-opacity="1" /><path clip-path="url(#clip390)" d="M1534.73 1549.81 Q1534.73 1543.44 1532.09 1539.94 Q1529.48 1536.44 1524.74 1536.44 Q1520.03 1536.44 1517.39 1539.94 Q1514.78 1543.44 1514.78 1549.81 Q1514.78 1556.14 1517.39 1559.64 Q1520.03 1563.14 1524.74 1563.14 Q1529.48 1563.14 1532.09 1559.64 Q1534.73 1556.14 1534.73 1549.81 M1540.59 1563.62 Q1540.59 1572.72 1536.55 1577.15 Q1532.51 1581.6 1524.17 1581.6 Q1521.08 1581.6 1518.34 1581.13 Q1515.61 1580.68 1513.03 1579.72 L1513.03 1574.03 Q1515.61 1575.43 1518.12 1576.1 Q1520.63 1576.76 1523.24 1576.76 Q1529.01 1576.76 1531.87 1573.74 Q1534.73 1570.75 1534.73 1564.67 L1534.73 1561.77 Q1532.92 1564.92 1530.09 1566.48 Q1527.25 1568.04 1523.31 1568.04 Q1516.75 1568.04 1512.74 1563.05 Q1508.73 1558.05 1508.73 1549.81 Q1508.73 1541.53 1512.74 1536.53 Q1516.75 1531.54 1523.31 1531.54 Q1527.25 1531.54 1530.09 1533.1 Q1532.92 1534.66 1534.73 1537.81 L1534.73 1532.4 L1540.59 1532.4 L1540.59 1563.62 Z" fill="#000000" fill-rule="evenodd" fill-opacity="1" /><path clip-path="url(#clip390)" d="M1587.44 1518.58 Q1583.18 1525.9 1581.11 1533.06 Q1579.04 1540.23 1579.04 1547.58 Q1579.04 1554.93 1581.11 1562.16 Q1583.21 1569.35 1587.44 1576.64 L1582.35 1576.64 Q1577.58 1569.16 1575.19 1561.93 Q1572.83 1554.71 1572.83 1547.58 Q1572.83 1540.48 1575.19 1533.29 Q1577.54 1526.09 1582.35 1518.58 L1587.44 1518.58 Z" fill="#000000" fill-rule="evenodd" fill-opacity="1" /><path clip-path="url(#clip390)" d="M1622.26 1537.81 L1622.26 1518.52 L1628.12 1518.52 L1628.12 1568.04 L1622.26 1568.04 L1622.26 1562.7 Q1620.42 1565.88 1617.58 1567.44 Q1614.78 1568.97 1610.84 1568.97 Q1604.38 1568.97 1600.3 1563.81 Q1596.26 1558.65 1596.26 1550.25 Q1596.26 1541.85 1600.3 1536.69 Q1604.38 1531.54 1610.84 1531.54 Q1614.78 1531.54 1617.58 1533.1 Q1620.42 1534.62 1622.26 1537.81 M1602.31 1550.25 Q1602.31 1556.71 1604.95 1560.4 Q1607.62 1564.07 1612.27 1564.07 Q1616.92 1564.07 1619.59 1560.4 Q1622.26 1556.71 1622.26 1550.25 Q1622.26 1543.79 1619.59 1540.13 Q1616.92 1536.44 1612.27 1536.44 Q1607.62 1536.44 1604.95 1540.13 Q1602.31 1543.79 1602.31 1550.25 Z" fill="#000000" fill-rule="evenodd" fill-opacity="1" /><path clip-path="url(#clip390)" d="M1639.26 1518.58 L1644.35 1518.58 Q1649.13 1526.09 1651.48 1533.29 Q1653.87 1540.48 1653.87 1547.58 Q1653.87 1554.71 1651.48 1561.93 Q1649.13 1569.16 1644.35 1576.64 L1639.26 1576.64 Q1643.49 1569.35 1645.56 1562.16 Q1647.66 1554.93 1647.66 1547.58 Q1647.66 1540.23 1645.56 1533.06 Q1643.49 1525.9 1639.26 1518.58 Z" fill="#000000" fill-rule="evenodd" fill-opacity="1" /><polyline clip-path="url(#clip392)" style="stroke:#000000; stroke-linecap:round; stroke-linejoin:round; stroke-width:2; stroke-opacity:0.1; fill:none" points="
  262.551,1384.24 2352.76,1384.24 
  "/>
<polyline clip-path="url(#clip392)" style="stroke:#000000; stroke-linecap:round; stroke-linejoin:round; stroke-width:2; stroke-opacity:0.1; fill:none" points="
  262.551,1040.04 2352.76,1040.04 
  "/>
<polyline clip-path="url(#clip392)" style="stroke:#000000; stroke-linecap:round; stroke-linejoin:round; stroke-width:2; stroke-opacity:0.1; fill:none" points="
  262.551,695.85 2352.76,695.85 
  "/>
<polyline clip-path="url(#clip392)" style="stroke:#000000; stroke-linecap:round; stroke-linejoin:round; stroke-width:2; stroke-opacity:0.1; fill:none" points="
  262.551,351.656 2352.76,351.656 
  "/>
<polyline clip-path="url(#clip390)" style="stroke:#000000; stroke-linecap:round; stroke-linejoin:round; stroke-width:4; stroke-opacity:1; fill:none" points="
  262.551,1423.18 262.551,47.2441 
  "/>
<polyline clip-path="url(#clip390)" style="stroke:#000000; stroke-linecap:round; stroke-linejoin:round; stroke-width:4; stroke-opacity:1; fill:none" points="
  262.551,1384.24 281.449,1384.24 
  "/>
<polyline clip-path="url(#clip390)" style="stroke:#000000; stroke-linecap:round; stroke-linejoin:round; stroke-width:4; stroke-opacity:1; fill:none" points="
  262.551,1040.04 281.449,1040.04 
  "/>
<polyline clip-path="url(#clip390)" style="stroke:#000000; stroke-linecap:round; stroke-linejoin:round; stroke-width:4; stroke-opacity:1; fill:none" points="
  262.551,695.85 281.449,695.85 
  "/>
<polyline clip-path="url(#clip390)" style="stroke:#000000; stroke-linecap:round; stroke-linejoin:round; stroke-width:4; stroke-opacity:1; fill:none" points="
  262.551,351.656 281.449,351.656 
  "/>
<path clip-path="url(#clip390)" d="M214.607 1370.04 Q210.996 1370.04 209.167 1373.6 Q207.362 1377.14 207.362 1384.27 Q207.362 1391.38 209.167 1394.94 Q210.996 1398.49 214.607 1398.49 Q218.241 1398.49 220.047 1394.94 Q221.875 1391.38 221.875 1384.27 Q221.875 1377.14 220.047 1373.6 Q218.241 1370.04 214.607 1370.04 M214.607 1366.33 Q220.417 1366.33 223.473 1370.94 Q226.551 1375.52 226.551 1384.27 Q226.551 1393 223.473 1397.61 Q220.417 1402.19 214.607 1402.19 Q208.797 1402.19 205.718 1397.61 Q202.662 1393 202.662 1384.27 Q202.662 1375.52 205.718 1370.94 Q208.797 1366.33 214.607 1366.33 Z" fill="#000000" fill-rule="evenodd" fill-opacity="1" /><path clip-path="url(#clip390)" d="M144.329 1022.76 L162.686 1022.76 L162.686 1026.7 L148.612 1026.7 L148.612 1035.17 Q149.63 1034.82 150.649 1034.66 Q151.667 1034.48 152.686 1034.48 Q158.473 1034.48 161.852 1037.65 Q165.232 1040.82 165.232 1046.24 Q165.232 1051.81 161.76 1054.92 Q158.288 1058 151.968 1058 Q149.792 1058 147.524 1057.63 Q145.279 1057.25 142.871 1056.51 L142.871 1051.81 Q144.954 1052.95 147.177 1053.5 Q149.399 1054.06 151.876 1054.06 Q155.88 1054.06 158.218 1051.95 Q160.556 1049.85 160.556 1046.24 Q160.556 1042.63 158.218 1040.52 Q155.88 1038.41 151.876 1038.41 Q150.001 1038.41 148.126 1038.83 Q146.274 1039.25 144.329 1040.13 L144.329 1022.76 Z" fill="#000000" fill-rule="evenodd" fill-opacity="1" /><path clip-path="url(#clip390)" d="M184.445 1025.84 Q180.834 1025.84 179.005 1029.41 Q177.2 1032.95 177.2 1040.08 Q177.2 1047.19 179.005 1050.75 Q180.834 1054.29 184.445 1054.29 Q188.079 1054.29 189.885 1050.75 Q191.713 1047.19 191.713 1040.08 Q191.713 1032.95 189.885 1029.41 Q188.079 1025.84 184.445 1025.84 M184.445 1022.14 Q190.255 1022.14 193.311 1026.75 Q196.389 1031.33 196.389 1040.08 Q196.389 1048.81 193.311 1053.41 Q190.255 1058 184.445 1058 Q178.635 1058 175.556 1053.41 Q172.501 1048.81 172.501 1040.08 Q172.501 1031.33 175.556 1026.75 Q178.635 1022.14 184.445 1022.14 Z" fill="#000000" fill-rule="evenodd" fill-opacity="1" /><path clip-path="url(#clip390)" d="M214.607 1025.84 Q210.996 1025.84 209.167 1029.41 Q207.362 1032.95 207.362 1040.08 Q207.362 1047.19 209.167 1050.75 Q210.996 1054.29 214.607 1054.29 Q218.241 1054.29 220.047 1050.75 Q221.875 1047.19 221.875 1040.08 Q221.875 1032.95 220.047 1029.41 Q218.241 1025.84 214.607 1025.84 M214.607 1022.14 Q220.417 1022.14 223.473 1026.75 Q226.551 1031.33 226.551 1040.08 Q226.551 1048.81 223.473 1053.41 Q220.417 1058 214.607 1058 Q208.797 1058 205.718 1053.41 Q202.662 1048.81 202.662 1040.08 Q202.662 1031.33 205.718 1026.75 Q208.797 1022.14 214.607 1022.14 Z" fill="#000000" fill-rule="evenodd" fill-opacity="1" /><path clip-path="url(#clip390)" d="M114.931 709.195 L122.57 709.195 L122.57 682.829 L114.26 684.496 L114.26 680.237 L122.524 678.57 L127.2 678.57 L127.2 709.195 L134.839 709.195 L134.839 713.13 L114.931 713.13 L114.931 709.195 Z" fill="#000000" fill-rule="evenodd" fill-opacity="1" /><path clip-path="url(#clip390)" d="M154.283 681.649 Q150.672 681.649 148.843 685.213 Q147.038 688.755 147.038 695.885 Q147.038 702.991 148.843 706.556 Q150.672 710.098 154.283 710.098 Q157.917 710.098 159.723 706.556 Q161.552 702.991 161.552 695.885 Q161.552 688.755 159.723 685.213 Q157.917 681.649 154.283 681.649 M154.283 677.945 Q160.093 677.945 163.149 682.551 Q166.227 687.135 166.227 695.885 Q166.227 704.611 163.149 709.218 Q160.093 713.801 154.283 713.801 Q148.473 713.801 145.394 709.218 Q142.339 704.611 142.339 695.885 Q142.339 687.135 145.394 682.551 Q148.473 677.945 154.283 677.945 Z" fill="#000000" fill-rule="evenodd" fill-opacity="1" /><path clip-path="url(#clip390)" d="M184.445 681.649 Q180.834 681.649 179.005 685.213 Q177.2 688.755 177.2 695.885 Q177.2 702.991 179.005 706.556 Q180.834 710.098 184.445 710.098 Q188.079 710.098 189.885 706.556 Q191.713 702.991 191.713 695.885 Q191.713 688.755 189.885 685.213 Q188.079 681.649 184.445 681.649 M184.445 677.945 Q190.255 677.945 193.311 682.551 Q196.389 687.135 196.389 695.885 Q196.389 704.611 193.311 709.218 Q190.255 713.801 184.445 713.801 Q178.635 713.801 175.556 709.218 Q172.501 704.611 172.501 695.885 Q172.501 687.135 175.556 682.551 Q178.635 677.945 184.445 677.945 Z" fill="#000000" fill-rule="evenodd" fill-opacity="1" /><path clip-path="url(#clip390)" d="M214.607 681.649 Q210.996 681.649 209.167 685.213 Q207.362 688.755 207.362 695.885 Q207.362 702.991 209.167 706.556 Q210.996 710.098 214.607 710.098 Q218.241 710.098 220.047 706.556 Q221.875 702.991 221.875 695.885 Q221.875 688.755 220.047 685.213 Q218.241 681.649 214.607 681.649 M214.607 677.945 Q220.417 677.945 223.473 682.551 Q226.551 687.135 226.551 695.885 Q226.551 704.611 223.473 709.218 Q220.417 713.801 214.607 713.801 Q208.797 713.801 205.718 709.218 Q202.662 704.611 202.662 695.885 Q202.662 687.135 205.718 682.551 Q208.797 677.945 214.607 677.945 Z" fill="#000000" fill-rule="evenodd" fill-opacity="1" /><path clip-path="url(#clip390)" d="M114.931 365.001 L122.57 365.001 L122.57 338.635 L114.26 340.302 L114.26 336.042 L122.524 334.376 L127.2 334.376 L127.2 365.001 L134.839 365.001 L134.839 368.936 L114.931 368.936 L114.931 365.001 Z" fill="#000000" fill-rule="evenodd" fill-opacity="1" /><path clip-path="url(#clip390)" d="M144.329 334.376 L162.686 334.376 L162.686 338.311 L148.612 338.311 L148.612 346.783 Q149.63 346.436 150.649 346.274 Q151.667 346.089 152.686 346.089 Q158.473 346.089 161.852 349.26 Q165.232 352.431 165.232 357.848 Q165.232 363.427 161.76 366.528 Q158.288 369.607 151.968 369.607 Q149.792 369.607 147.524 369.237 Q145.279 368.866 142.871 368.126 L142.871 363.427 Q144.954 364.561 147.177 365.116 Q149.399 365.672 151.876 365.672 Q155.88 365.672 158.218 363.565 Q160.556 361.459 160.556 357.848 Q160.556 354.237 158.218 352.13 Q155.88 350.024 151.876 350.024 Q150.001 350.024 148.126 350.44 Q146.274 350.857 144.329 351.737 L144.329 334.376 Z" fill="#000000" fill-rule="evenodd" fill-opacity="1" /><path clip-path="url(#clip390)" d="M184.445 337.454 Q180.834 337.454 179.005 341.019 Q177.2 344.561 177.2 351.69 Q177.2 358.797 179.005 362.362 Q180.834 365.903 184.445 365.903 Q188.079 365.903 189.885 362.362 Q191.713 358.797 191.713 351.69 Q191.713 344.561 189.885 341.019 Q188.079 337.454 184.445 337.454 M184.445 333.751 Q190.255 333.751 193.311 338.357 Q196.389 342.941 196.389 351.69 Q196.389 360.417 193.311 365.024 Q190.255 369.607 184.445 369.607 Q178.635 369.607 175.556 365.024 Q172.501 360.417 172.501 351.69 Q172.501 342.941 175.556 338.357 Q178.635 333.751 184.445 333.751 Z" fill="#000000" fill-rule="evenodd" fill-opacity="1" /><path clip-path="url(#clip390)" d="M214.607 337.454 Q210.996 337.454 209.167 341.019 Q207.362 344.561 207.362 351.69 Q207.362 358.797 209.167 362.362 Q210.996 365.903 214.607 365.903 Q218.241 365.903 220.047 362.362 Q221.875 358.797 221.875 351.69 Q221.875 344.561 220.047 341.019 Q218.241 337.454 214.607 337.454 M214.607 333.751 Q220.417 333.751 223.473 338.357 Q226.551 342.941 226.551 351.69 Q226.551 360.417 223.473 365.024 Q220.417 369.607 214.607 369.607 Q208.797 369.607 205.718 365.024 Q202.662 360.417 202.662 351.69 Q202.662 342.941 205.718 338.357 Q208.797 333.751 214.607 333.751 Z" fill="#000000" fill-rule="evenodd" fill-opacity="1" /><path clip-path="url(#clip390)" d="M57.2247 1081.6 L44.4614 1081.6 L44.4614 1092.11 L39.1779 1092.11 L39.1779 1075.24 L59.58 1075.24 Q62.2218 1078.96 63.5904 1083.45 Q64.9272 1087.94 64.9272 1093.03 Q64.9272 1104.17 58.4342 1110.47 Q51.9093 1116.74 40.2919 1116.74 Q28.6427 1116.74 22.1496 1110.47 Q15.6248 1104.17 15.6248 1093.03 Q15.6248 1088.38 16.7706 1084.21 Q17.9164 1080.01 20.1444 1076.48 L26.9876 1076.48 Q23.9639 1080.04 22.4361 1084.05 Q20.9083 1088.06 20.9083 1092.49 Q20.9083 1101.21 25.7781 1105.6 Q30.6479 1109.96 40.2919 1109.96 Q49.9041 1109.96 54.7739 1105.6 Q59.6436 1101.21 59.6436 1092.49 Q59.6436 1089.08 59.0707 1086.41 Q58.466 1083.73 57.2247 1081.6 Z" fill="#000000" fill-rule="evenodd" fill-opacity="1" /><path clip-path="url(#clip390)" d="M33.8307 1043.09 Q33.2578 1044.08 33.0032 1045.25 Q32.7167 1046.4 32.7167 1047.8 Q32.7167 1052.77 35.9632 1055.44 Q39.1779 1058.08 45.2253 1058.08 L64.0042 1058.08 L64.0042 1063.97 L28.3562 1063.97 L28.3562 1058.08 L33.8944 1058.08 Q30.6479 1056.23 29.0883 1053.27 Q27.4968 1050.31 27.4968 1046.08 Q27.4968 1045.48 27.5923 1044.74 Q27.656 1044.01 27.8151 1043.12 L33.8307 1043.09 Z" fill="#000000" fill-rule="evenodd" fill-opacity="1" /><path clip-path="url(#clip390)" d="M44.7161 1007.89 L47.5806 1007.89 L47.5806 1034.81 Q53.6281 1034.43 56.8109 1031.19 Q59.9619 1027.91 59.9619 1022.08 Q59.9619 1018.71 59.1344 1015.56 Q58.3069 1012.37 56.6518 1009.26 L62.1899 1009.26 Q63.5267 1012.41 64.227 1015.72 Q64.9272 1019.03 64.9272 1022.43 Q64.9272 1030.96 59.9619 1035.96 Q54.9967 1040.93 46.5303 1040.93 Q37.7774 1040.93 32.6531 1036.21 Q27.4968 1031.47 27.4968 1023.45 Q27.4968 1016.26 32.1438 1012.09 Q36.7589 1007.89 44.7161 1007.89 M42.9973 1013.74 Q38.1912 1013.81 35.3266 1016.45 Q32.4621 1019.06 32.4621 1023.39 Q32.4621 1028.29 35.2312 1031.25 Q38.0002 1034.18 43.0292 1034.62 L42.9973 1013.74 Z" fill="#000000" fill-rule="evenodd" fill-opacity="1" /><path clip-path="url(#clip390)" d="M44.7161 967.783 L47.5806 967.783 L47.5806 994.71 Q53.6281 994.328 56.8109 991.082 Q59.9619 987.803 59.9619 981.979 Q59.9619 978.605 59.1344 975.454 Q58.3069 972.271 56.6518 969.152 L62.1899 969.152 Q63.5267 972.303 64.227 975.613 Q64.9272 978.923 64.9272 982.329 Q64.9272 990.859 59.9619 995.856 Q54.9967 1000.82 46.5303 1000.82 Q37.7774 1000.82 32.6531 996.11 Q27.4968 991.368 27.4968 983.347 Q27.4968 976.154 32.1438 971.984 Q36.7589 967.783 44.7161 967.783 M42.9973 973.64 Q38.1912 973.703 35.3266 976.345 Q32.4621 978.955 32.4621 983.284 Q32.4621 988.185 35.2312 991.145 Q38.0002 994.073 43.0292 994.519 L42.9973 973.64 Z" fill="#000000" fill-rule="evenodd" fill-opacity="1" /><path clip-path="url(#clip390)" d="M42.4881 928.538 L64.0042 928.538 L64.0042 934.395 L42.679 934.395 Q37.6183 934.395 35.1038 936.368 Q32.5894 938.342 32.5894 942.288 Q32.5894 947.031 35.6131 949.768 Q38.6368 952.505 43.8567 952.505 L64.0042 952.505 L64.0042 958.394 L28.3562 958.394 L28.3562 952.505 L33.8944 952.505 Q30.6797 950.405 29.0883 947.572 Q27.4968 944.707 27.4968 940.983 Q27.4968 934.841 31.3163 931.69 Q35.1038 928.538 42.4881 928.538 Z" fill="#000000" fill-rule="evenodd" fill-opacity="1" /><path clip-path="url(#clip390)" d="M14.479 896.137 L14.479 890.281 L64.0042 890.281 L64.0042 896.137 L14.479 896.137 Z" fill="#000000" fill-rule="evenodd" fill-opacity="1" /><path clip-path="url(#clip390)" d="M44.7161 847.535 L47.5806 847.535 L47.5806 874.462 Q53.6281 874.08 56.8109 870.833 Q59.9619 867.555 59.9619 861.73 Q59.9619 858.357 59.1344 855.206 Q58.3069 852.023 56.6518 848.903 L62.1899 848.903 Q63.5267 852.055 64.227 855.365 Q64.9272 858.675 64.9272 862.081 Q64.9272 870.611 59.9619 875.608 Q54.9967 880.573 46.5303 880.573 Q37.7774 880.573 32.6531 875.862 Q27.4968 871.12 27.4968 863.099 Q27.4968 855.906 32.1438 851.736 Q36.7589 847.535 44.7161 847.535 M42.9973 853.391 Q38.1912 853.455 35.3266 856.097 Q32.4621 858.707 32.4621 863.035 Q32.4621 867.937 35.2312 870.897 Q38.0002 873.825 43.0292 874.271 L42.9973 853.391 Z" fill="#000000" fill-rule="evenodd" fill-opacity="1" /><path clip-path="url(#clip390)" d="M46.0847 821.722 Q46.0847 828.82 47.7079 831.557 Q49.3312 834.294 53.2461 834.294 Q56.3653 834.294 58.2114 832.257 Q60.0256 830.188 60.0256 826.655 Q60.0256 821.786 56.5881 818.857 Q53.1188 815.897 47.3897 815.897 L46.0847 815.897 L46.0847 821.722 M43.6657 810.041 L64.0042 810.041 L64.0042 815.897 L58.5933 815.897 Q61.8398 817.902 63.3994 820.894 Q64.9272 823.886 64.9272 828.215 Q64.9272 833.689 61.8716 836.936 Q58.7843 840.151 53.6281 840.151 Q47.6125 840.151 44.5569 836.14 Q41.5014 832.098 41.5014 824.109 L41.5014 815.897 L40.9285 815.897 Q36.8862 815.897 34.6901 818.571 Q32.4621 821.213 32.4621 826.019 Q32.4621 829.074 33.1941 831.971 Q33.9262 834.867 35.3903 837.541 L29.9795 837.541 Q28.7381 834.326 28.1334 831.302 Q27.4968 828.279 27.4968 825.414 Q27.4968 817.68 31.5072 813.86 Q35.5176 810.041 43.6657 810.041 Z" fill="#000000" fill-rule="evenodd" fill-opacity="1" /><path clip-path="url(#clip390)" d="M14.479 779.931 L19.3487 779.931 L19.3487 785.533 Q19.3487 788.684 20.6219 789.925 Q21.895 791.135 25.2052 791.135 L28.3562 791.135 L28.3562 781.491 L32.9077 781.491 L32.9077 791.135 L64.0042 791.135 L64.0042 797.023 L32.9077 797.023 L32.9077 802.625 L28.3562 802.625 L28.3562 797.023 L25.8736 797.023 Q19.9216 797.023 17.2162 794.254 Q14.479 791.485 14.479 785.469 L14.479 779.931 Z" fill="#000000" fill-rule="evenodd" fill-opacity="1" /><path clip-path="url(#clip390)" d="M46.0847 738.108 Q46.0847 745.206 47.7079 747.943 Q49.3312 750.681 53.2461 750.681 Q56.3653 750.681 58.2114 748.644 Q60.0256 746.575 60.0256 743.042 Q60.0256 738.172 56.5881 735.244 Q53.1188 732.284 47.3897 732.284 L46.0847 732.284 L46.0847 738.108 M43.6657 726.427 L64.0042 726.427 L64.0042 732.284 L58.5933 732.284 Q61.8398 734.289 63.3994 737.281 Q64.9272 740.273 64.9272 744.601 Q64.9272 750.076 61.8716 753.322 Q58.7843 756.537 53.6281 756.537 Q47.6125 756.537 44.5569 752.527 Q41.5014 748.484 41.5014 740.496 L41.5014 732.284 L40.9285 732.284 Q36.8862 732.284 34.6901 734.957 Q32.4621 737.599 32.4621 742.405 Q32.4621 745.461 33.1941 748.357 Q33.9262 751.254 35.3903 753.927 L29.9795 753.927 Q28.7381 750.712 28.1334 747.689 Q27.4968 744.665 27.4968 741.8 Q27.4968 734.066 31.5072 730.247 Q35.5176 726.427 43.6657 726.427 Z" fill="#000000" fill-rule="evenodd" fill-opacity="1" /><path clip-path="url(#clip390)" d="M33.8307 693.708 Q33.2578 694.694 33.0032 695.872 Q32.7167 697.018 32.7167 698.418 Q32.7167 703.383 35.9632 706.057 Q39.1779 708.699 45.2253 708.699 L64.0042 708.699 L64.0042 714.587 L28.3562 714.587 L28.3562 708.699 L33.8944 708.699 Q30.6479 706.853 29.0883 703.893 Q27.4968 700.933 27.4968 696.699 Q27.4968 696.095 27.5923 695.363 Q27.656 694.631 27.8151 693.739 L33.8307 693.708 Z" fill="#000000" fill-rule="evenodd" fill-opacity="1" /><path clip-path="url(#clip390)" d="M44.7161 658.505 L47.5806 658.505 L47.5806 685.432 Q53.6281 685.05 56.8109 681.804 Q59.9619 678.525 59.9619 672.701 Q59.9619 669.327 59.1344 666.176 Q58.3069 662.993 56.6518 659.874 L62.1899 659.874 Q63.5267 663.025 64.227 666.335 Q64.9272 669.645 64.9272 673.051 Q64.9272 681.581 59.9619 686.578 Q54.9967 691.543 46.5303 691.543 Q37.7774 691.543 32.6531 686.833 Q27.4968 682.09 27.4968 674.069 Q27.4968 666.876 32.1438 662.707 Q36.7589 658.505 44.7161 658.505 M42.9973 664.362 Q38.1912 664.425 35.3266 667.067 Q32.4621 669.677 32.4621 674.006 Q32.4621 678.907 35.2312 681.867 Q38.0002 684.796 43.0292 685.241 L42.9973 664.362 Z" fill="#000000" fill-rule="evenodd" fill-opacity="1" /><path clip-path="url(#clip390)" d="M46.0847 632.692 Q46.0847 639.79 47.7079 642.527 Q49.3312 645.265 53.2461 645.265 Q56.3653 645.265 58.2114 643.228 Q60.0256 641.159 60.0256 637.626 Q60.0256 632.756 56.5881 629.828 Q53.1188 626.868 47.3897 626.868 L46.0847 626.868 L46.0847 632.692 M43.6657 621.011 L64.0042 621.011 L64.0042 626.868 L58.5933 626.868 Q61.8398 628.873 63.3994 631.865 Q64.9272 634.857 64.9272 639.185 Q64.9272 644.66 61.8716 647.906 Q58.7843 651.121 53.6281 651.121 Q47.6125 651.121 44.5569 647.111 Q41.5014 643.068 41.5014 635.079 L41.5014 626.868 L40.9285 626.868 Q36.8862 626.868 34.6901 629.541 Q32.4621 632.183 32.4621 636.989 Q32.4621 640.045 33.1941 642.941 Q33.9262 645.837 35.3903 648.511 L29.9795 648.511 Q28.7381 645.296 28.1334 642.273 Q27.4968 639.249 27.4968 636.384 Q27.4968 628.65 31.5072 624.831 Q35.5176 621.011 43.6657 621.011 Z" fill="#000000" fill-rule="evenodd" fill-opacity="1" /><path clip-path="url(#clip390)" d="M14.5426 574.16 Q21.8632 578.425 29.0246 580.493 Q36.186 582.562 43.5384 582.562 Q50.8908 582.562 58.1159 580.493 Q65.3091 578.393 72.5979 574.16 L72.5979 579.252 Q65.1182 584.026 57.8931 586.414 Q50.668 588.769 43.5384 588.769 Q36.4406 588.769 29.2474 586.414 Q22.0542 584.058 14.5426 579.252 L14.5426 574.16 Z" fill="#000000" fill-rule="evenodd" fill-opacity="1" /><path clip-path="url(#clip390)" d="M29.7248 537.143 L35.1993 537.143 Q33.8307 539.626 33.1623 542.14 Q32.4621 544.623 32.4621 547.169 Q32.4621 552.866 36.0905 556.017 Q39.6872 559.168 46.212 559.168 Q52.7369 559.168 56.3653 556.017 Q59.9619 552.866 59.9619 547.169 Q59.9619 544.623 59.2935 542.14 Q58.5933 539.626 57.2247 537.143 L62.6355 537.143 Q63.7814 539.594 64.3543 542.236 Q64.9272 544.846 64.9272 547.806 Q64.9272 555.858 59.8664 560.601 Q54.8057 565.343 46.212 565.343 Q37.491 565.343 32.4939 560.569 Q27.4968 555.763 27.4968 547.424 Q27.4968 544.718 28.0697 542.14 Q28.6108 539.562 29.7248 537.143 Z" fill="#000000" fill-rule="evenodd" fill-opacity="1" /><path clip-path="url(#clip390)" d="M35.1993 499.203 Q31.2526 497.007 29.3747 493.952 Q27.4968 490.896 27.4968 486.758 Q27.4968 481.188 31.4117 478.165 Q35.2948 475.141 42.4881 475.141 L64.0042 475.141 L64.0042 481.029 L42.679 481.029 Q37.5546 481.029 35.072 482.844 Q32.5894 484.658 32.5894 488.382 Q32.5894 492.933 35.6131 495.575 Q38.6368 498.217 43.8567 498.217 L64.0042 498.217 L64.0042 504.105 L42.679 504.105 Q37.5228 504.105 35.072 505.919 Q32.5894 507.733 32.5894 511.521 Q32.5894 516.009 35.6449 518.651 Q38.6686 521.292 43.8567 521.292 L64.0042 521.292 L64.0042 527.181 L28.3562 527.181 L28.3562 521.292 L33.8944 521.292 Q30.616 519.287 29.0564 516.486 Q27.4968 513.685 27.4968 509.834 Q27.4968 505.951 29.4702 503.246 Q31.4436 500.508 35.1993 499.203 Z" fill="#000000" fill-rule="evenodd" fill-opacity="1" /><path clip-path="url(#clip390)" d="M16.4842 439.175 L34.2127 421.892 L34.2127 428.289 L21.6404 442.294 L34.2127 456.299 L34.2127 462.696 L16.4842 445.413 L16.4842 439.175 Z" fill="#000000" fill-rule="evenodd" fill-opacity="1" /><path clip-path="url(#clip390)" d="M58.5933 402.476 L58.5933 380.037 L64.0042 380.037 L64.0042 410.211 L58.5933 410.211 Q54.8057 406.551 48.44 400.248 Q42.0425 393.915 40.1964 392.291 Q36.7271 389.204 34.34 387.995 Q31.921 386.753 29.5975 386.753 Q25.8099 386.753 23.4228 389.427 Q21.0356 392.069 21.0356 396.334 Q21.0356 399.357 22.086 402.731 Q23.1363 406.073 25.2688 409.893 L18.7758 409.893 Q17.2162 406.009 16.4205 402.636 Q15.6248 399.262 15.6248 396.461 Q15.6248 389.077 19.3169 384.684 Q23.009 380.292 29.1837 380.292 Q32.112 380.292 34.7537 381.406 Q37.3637 382.488 40.9285 385.385 Q41.8515 386.18 46.2757 390.445 Q50.668 394.71 58.5933 402.476 Z" fill="#000000" fill-rule="evenodd" fill-opacity="1" /><path clip-path="url(#clip390)" d="M14.5426 368.293 L14.5426 363.2 Q22.0542 358.426 29.2474 356.07 Q36.4406 353.683 43.5384 353.683 Q50.668 353.683 57.8931 356.07 Q65.1182 358.426 72.5979 363.2 L72.5979 368.293 Q65.3091 364.059 58.1159 361.991 Q50.8908 359.89 43.5384 359.89 Q36.186 359.89 29.0246 361.991 Q21.8632 364.059 14.5426 368.293 Z" fill="#000000" fill-rule="evenodd" fill-opacity="1" /><polyline clip-path="url(#clip392)" style="stroke:#009af9; stroke-linecap:round; stroke-linejoin:round; stroke-width:4; stroke-opacity:1; fill:none" points="
  287.142,1384.24 311.733,1384.24 336.323,1384.24 360.914,1384.24 385.504,1384.24 410.095,1384.24 434.686,1384.24 459.276,1384.24 483.867,1384.24 508.458,1384.24 
  533.048,1384.24 557.639,1384.24 582.23,1384.24 606.82,1384.24 631.411,1384.24 656.002,1384.24 680.592,1384.24 705.183,1384.24 729.773,1384.24 754.364,1384.24 
  778.955,1384.24 803.545,1384.24 828.136,1384.24 852.727,1384.24 877.317,1384.24 901.908,1384.24 926.499,1384.24 951.089,1384.24 975.68,1384.24 1000.27,1384.24 
  1024.86,1384.24 1049.45,1384.24 1074.04,1384.24 1098.63,1382.8 1123.22,1382.8 1147.81,1384.24 1172.41,1384.24 1197,1382.78 1221.59,1382.78 1246.18,1381.65 
  1270.77,1381.04 1295.36,1379.18 1319.95,1378.08 1344.54,1374.24 1369.13,1371.26 1393.72,1368.69 1418.31,1367.34 1442.9,1366.73 1467.49,1366.06 1492.08,1363.47 
  1516.67,1362.69 1541.26,1360.98 1565.86,1359.47 1590.45,1356.15 1615.04,1351.19 1639.63,1344.08 1664.22,1336.86 1688.81,1329.95 1713.4,1324.42 1737.99,1321.5 
  1762.58,1318.15 1787.17,1313.85 1811.76,1308.8 1836.35,1305.27 1860.94,1301.84 1885.53,1298.73 1910.12,1293.79 1934.71,1286.43 1959.31,1279.74 1983.9,1267.69 
  2008.49,1256.56 2033.08,1250.08 2057.67,1243.62 2082.26,1237.74 2106.85,1231.62 2131.44,1224.68 2156.03,1214.87 2180.62,1205.78 2205.21,1197.38 2229.8,1189.32 
  2254.39,1177 
  "/>
<circle clip-path="url(#clip392)" cx="1442.9" cy="1317.4" r="14.4" fill="#e26f46" fill-rule="evenodd" fill-opacity="1" stroke="#000000" stroke-opacity="1" stroke-width="3.2"/>
<circle clip-path="url(#clip392)" cx="1590.45" cy="1174.41" r="14.4" fill="#e26f46" fill-rule="evenodd" fill-opacity="1" stroke="#000000" stroke-opacity="1" stroke-width="3.2"/>
<circle clip-path="url(#clip392)" cx="1762.58" cy="1028.25" r="14.4" fill="#e26f46" fill-rule="evenodd" fill-opacity="1" stroke="#000000" stroke-opacity="1" stroke-width="3.2"/>
<circle clip-path="url(#clip392)" cx="1934.71" cy="712.239" r="14.4" fill="#e26f46" fill-rule="evenodd" fill-opacity="1" stroke="#000000" stroke-opacity="1" stroke-width="3.2"/>
<circle clip-path="url(#clip392)" cx="2106.85" cy="86.1857" r="14.4" fill="#e26f46" fill-rule="evenodd" fill-opacity="1" stroke="#000000" stroke-opacity="1" stroke-width="3.2"/>
<circle clip-path="url(#clip392)" cx="2278.98" cy="868.774" r="14.4" fill="#e26f46" fill-rule="evenodd" fill-opacity="1" stroke="#000000" stroke-opacity="1" stroke-width="3.2"/>
<path clip-path="url(#clip390)" d="
M332.225 248.629 L787.795 248.629 L787.795 93.1086 L332.225 93.1086  Z
  " fill="#ffffff" fill-rule="evenodd" fill-opacity="1"/>
<polyline clip-path="url(#clip390)" style="stroke:#000000; stroke-linecap:round; stroke-linejoin:round; stroke-width:4; stroke-opacity:1; fill:none" points="
  332.225,248.629 787.795,248.629 787.795,93.1086 332.225,93.1086 332.225,248.629 
  "/>
<polyline clip-path="url(#clip390)" style="stroke:#009af9; stroke-linecap:round; stroke-linejoin:round; stroke-width:4; stroke-opacity:1; fill:none" points="
  355.449,144.949 494.796,144.949 
  "/>
<path clip-path="url(#clip390)" d="M540.266 128.803 L540.266 133.363 Q537.604 132.09 535.243 131.465 Q532.882 130.84 530.683 130.84 Q526.863 130.84 524.78 132.321 Q522.72 133.803 522.72 136.534 Q522.72 138.826 524.085 140.007 Q525.474 141.164 529.317 141.882 L532.141 142.46 Q537.372 143.456 539.849 145.979 Q542.349 148.479 542.349 152.692 Q542.349 157.715 538.97 160.307 Q535.613 162.9 529.109 162.9 Q526.655 162.9 523.877 162.344 Q521.123 161.789 518.16 160.701 L518.16 155.886 Q521.007 157.483 523.738 158.293 Q526.47 159.104 529.109 159.104 Q533.113 159.104 535.289 157.53 Q537.465 155.956 537.465 153.039 Q537.465 150.493 535.891 149.057 Q534.34 147.622 530.775 146.905 L527.928 146.349 Q522.697 145.307 520.359 143.085 Q518.021 140.863 518.021 136.905 Q518.021 132.321 521.238 129.682 Q524.479 127.044 530.15 127.044 Q532.581 127.044 535.104 127.483 Q537.627 127.923 540.266 128.803 Z" fill="#000000" fill-rule="evenodd" fill-opacity="1" /><path clip-path="url(#clip390)" d="M549.456 136.303 L553.715 136.303 L553.715 162.229 L549.456 162.229 L549.456 136.303 M549.456 126.21 L553.715 126.21 L553.715 131.604 L549.456 131.604 L549.456 126.21 Z" fill="#000000" fill-rule="evenodd" fill-opacity="1" /><path clip-path="url(#clip390)" d="M582.812 141.28 Q584.409 138.409 586.631 137.044 Q588.854 135.678 591.863 135.678 Q595.914 135.678 598.113 138.525 Q600.312 141.349 600.312 146.581 L600.312 162.229 L596.03 162.229 L596.03 146.719 Q596.03 142.993 594.71 141.187 Q593.391 139.382 590.682 139.382 Q587.372 139.382 585.451 141.581 Q583.53 143.78 583.53 147.576 L583.53 162.229 L579.247 162.229 L579.247 146.719 Q579.247 142.969 577.928 141.187 Q576.608 139.382 573.854 139.382 Q570.59 139.382 568.669 141.604 Q566.747 143.803 566.747 147.576 L566.747 162.229 L562.465 162.229 L562.465 136.303 L566.747 136.303 L566.747 140.331 Q568.206 137.946 570.243 136.812 Q572.28 135.678 575.081 135.678 Q577.905 135.678 579.872 137.113 Q581.863 138.548 582.812 141.28 Z" fill="#000000" fill-rule="evenodd" fill-opacity="1" /><path clip-path="url(#clip390)" d="M608.367 151.997 L608.367 136.303 L612.627 136.303 L612.627 151.835 Q612.627 155.516 614.062 157.368 Q615.497 159.196 618.367 159.196 Q621.816 159.196 623.807 156.997 Q625.821 154.798 625.821 151.002 L625.821 136.303 L630.08 136.303 L630.08 162.229 L625.821 162.229 L625.821 158.247 Q624.27 160.608 622.21 161.766 Q620.173 162.9 617.465 162.9 Q612.997 162.9 610.682 160.122 Q608.367 157.344 608.367 151.997 M619.085 135.678 L619.085 135.678 Z" fill="#000000" fill-rule="evenodd" fill-opacity="1" /><path clip-path="url(#clip390)" d="M638.853 126.21 L643.113 126.21 L643.113 162.229 L638.853 162.229 L638.853 126.21 Z" fill="#000000" fill-rule="evenodd" fill-opacity="1" /><path clip-path="url(#clip390)" d="M663.807 149.196 Q658.645 149.196 656.654 150.377 Q654.663 151.557 654.663 154.405 Q654.663 156.673 656.145 158.016 Q657.65 159.335 660.219 159.335 Q663.761 159.335 665.89 156.835 Q668.043 154.312 668.043 150.145 L668.043 149.196 L663.807 149.196 M672.302 147.437 L672.302 162.229 L668.043 162.229 L668.043 158.293 Q666.585 160.655 664.409 161.789 Q662.233 162.9 659.085 162.9 Q655.103 162.9 652.742 160.678 Q650.404 158.432 650.404 154.682 Q650.404 150.307 653.321 148.085 Q656.261 145.863 662.071 145.863 L668.043 145.863 L668.043 145.446 Q668.043 142.507 666.099 140.909 Q664.177 139.289 660.682 139.289 Q658.46 139.289 656.353 139.821 Q654.247 140.354 652.302 141.419 L652.302 137.483 Q654.64 136.581 656.839 136.141 Q659.038 135.678 661.122 135.678 Q666.747 135.678 669.525 138.594 Q672.302 141.511 672.302 147.437 Z" fill="#000000" fill-rule="evenodd" fill-opacity="1" /><path clip-path="url(#clip390)" d="M685.288 128.942 L685.288 136.303 L694.061 136.303 L694.061 139.613 L685.288 139.613 L685.288 153.687 Q685.288 156.858 686.145 157.761 Q687.024 158.664 689.686 158.664 L694.061 158.664 L694.061 162.229 L689.686 162.229 Q684.756 162.229 682.881 160.4 Q681.006 158.548 681.006 153.687 L681.006 139.613 L677.881 139.613 L677.881 136.303 L681.006 136.303 L681.006 128.942 L685.288 128.942 Z" fill="#000000" fill-rule="evenodd" fill-opacity="1" /><path clip-path="url(#clip390)" d="M721.839 148.201 L721.839 150.284 L702.256 150.284 Q702.534 154.682 704.895 156.997 Q707.279 159.289 711.515 159.289 Q713.969 159.289 716.26 158.687 Q718.575 158.085 720.844 156.881 L720.844 160.909 Q718.552 161.881 716.145 162.391 Q713.737 162.9 711.26 162.9 Q705.057 162.9 701.422 159.289 Q697.811 155.678 697.811 149.52 Q697.811 143.155 701.237 139.428 Q704.686 135.678 710.52 135.678 Q715.751 135.678 718.783 139.057 Q721.839 142.414 721.839 148.201 M717.58 146.951 Q717.534 143.456 715.612 141.372 Q713.714 139.289 710.566 139.289 Q707.001 139.289 704.848 141.303 Q702.719 143.317 702.395 146.974 L717.58 146.951 Z" fill="#000000" fill-rule="evenodd" fill-opacity="1" /><path clip-path="url(#clip390)" d="M745.89 140.238 L745.89 126.21 L750.149 126.21 L750.149 162.229 L745.89 162.229 L745.89 158.34 Q744.547 160.655 742.487 161.789 Q740.45 162.9 737.58 162.9 Q732.881 162.9 729.918 159.15 Q726.978 155.4 726.978 149.289 Q726.978 143.178 729.918 139.428 Q732.881 135.678 737.58 135.678 Q740.45 135.678 742.487 136.812 Q744.547 137.923 745.89 140.238 M731.376 149.289 Q731.376 153.988 733.297 156.673 Q735.242 159.335 738.621 159.335 Q742.001 159.335 743.945 156.673 Q745.89 153.988 745.89 149.289 Q745.89 144.59 743.945 141.928 Q742.001 139.243 738.621 139.243 Q735.242 139.243 733.297 141.928 Q731.376 144.59 731.376 149.289 Z" fill="#000000" fill-rule="evenodd" fill-opacity="1" /><circle clip-path="url(#clip390)" cx="425.123" cy="196.789" r="23.04" fill="#e26f46" fill-rule="evenodd" fill-opacity="1" stroke="#000000" stroke-opacity="1" stroke-width="5.12"/>
<path clip-path="url(#clip390)" d="M534.039 182.68 Q528.947 182.68 525.937 186.476 Q522.951 190.272 522.951 196.823 Q522.951 203.351 525.937 207.147 Q528.947 210.944 534.039 210.944 Q539.132 210.944 542.095 207.147 Q545.081 203.351 545.081 196.823 Q545.081 190.272 542.095 186.476 Q539.132 182.68 534.039 182.68 M534.039 178.884 Q541.308 178.884 545.659 183.768 Q550.011 188.629 550.011 196.823 Q550.011 204.995 545.659 209.879 Q541.308 214.74 534.039 214.74 Q526.747 214.74 522.373 209.879 Q518.021 205.018 518.021 196.823 Q518.021 188.629 522.373 183.768 Q526.747 178.884 534.039 178.884 Z" fill="#000000" fill-rule="evenodd" fill-opacity="1" /><path clip-path="url(#clip390)" d="M575.752 201.129 Q575.752 196.43 573.807 193.768 Q571.886 191.083 568.507 191.083 Q565.127 191.083 563.182 193.768 Q561.261 196.43 561.261 201.129 Q561.261 205.828 563.182 208.513 Q565.127 211.175 568.507 211.175 Q571.886 211.175 573.807 208.513 Q575.752 205.828 575.752 201.129 M561.261 192.078 Q562.604 189.763 564.641 188.652 Q566.701 187.518 569.548 187.518 Q574.27 187.518 577.21 191.268 Q580.173 195.018 580.173 201.129 Q580.173 207.24 577.21 210.99 Q574.27 214.74 569.548 214.74 Q566.701 214.74 564.641 213.629 Q562.604 212.495 561.261 210.18 L561.261 214.069 L556.979 214.069 L556.979 178.05 L561.261 178.05 L561.261 192.078 Z" fill="#000000" fill-rule="evenodd" fill-opacity="1" /><path clip-path="url(#clip390)" d="M603.761 188.907 L603.761 192.934 Q601.955 192.009 600.011 191.546 Q598.067 191.083 595.983 191.083 Q592.812 191.083 591.215 192.055 Q589.641 193.027 589.641 194.971 Q589.641 196.453 590.775 197.309 Q591.909 198.143 595.335 198.907 L596.793 199.231 Q601.33 200.203 603.229 201.985 Q605.15 203.745 605.15 206.916 Q605.15 210.527 602.279 212.633 Q599.432 214.74 594.432 214.74 Q592.349 214.74 590.08 214.323 Q587.835 213.93 585.335 213.12 L585.335 208.721 Q587.696 209.948 589.988 210.573 Q592.28 211.175 594.525 211.175 Q597.534 211.175 599.155 210.157 Q600.775 209.115 600.775 207.24 Q600.775 205.504 599.594 204.578 Q598.437 203.652 594.479 202.796 L592.997 202.448 Q589.039 201.615 587.28 199.902 Q585.52 198.166 585.52 195.157 Q585.52 191.499 588.113 189.509 Q590.705 187.518 595.474 187.518 Q597.835 187.518 599.918 187.865 Q602.002 188.212 603.761 188.907 Z" fill="#000000" fill-rule="evenodd" fill-opacity="1" /><path clip-path="url(#clip390)" d="M612.534 208.189 L617.418 208.189 L617.418 214.069 L612.534 214.069 L612.534 208.189 Z" fill="#000000" fill-rule="evenodd" fill-opacity="1" /><path clip-path="url(#clip390)" d="M639.015 188.143 L643.529 188.143 L651.631 209.902 L659.733 188.143 L664.247 188.143 L654.525 214.069 L648.738 214.069 L639.015 188.143 Z" fill="#000000" fill-rule="evenodd" fill-opacity="1" /><path clip-path="url(#clip390)" d="M681.909 201.036 Q676.747 201.036 674.756 202.217 Q672.765 203.397 672.765 206.245 Q672.765 208.513 674.247 209.856 Q675.751 211.175 678.321 211.175 Q681.862 211.175 683.992 208.675 Q686.145 206.152 686.145 201.985 L686.145 201.036 L681.909 201.036 M690.404 199.277 L690.404 214.069 L686.145 214.069 L686.145 210.133 Q684.686 212.495 682.511 213.629 Q680.335 214.74 677.186 214.74 Q673.205 214.74 670.844 212.518 Q668.506 210.272 668.506 206.522 Q668.506 202.147 671.423 199.925 Q674.362 197.703 680.173 197.703 L686.145 197.703 L686.145 197.286 Q686.145 194.347 684.2 192.749 Q682.279 191.129 678.784 191.129 Q676.562 191.129 674.455 191.661 Q672.349 192.194 670.404 193.259 L670.404 189.323 Q672.742 188.421 674.941 187.981 Q677.14 187.518 679.224 187.518 Q684.848 187.518 687.626 190.434 Q690.404 193.351 690.404 199.277 Z" fill="#000000" fill-rule="evenodd" fill-opacity="1" /><path clip-path="url(#clip390)" d="M699.177 178.05 L703.436 178.05 L703.436 214.069 L699.177 214.069 L699.177 178.05 Z" fill="#000000" fill-rule="evenodd" fill-opacity="1" /><path clip-path="url(#clip390)" d="M711.909 203.837 L711.909 188.143 L716.168 188.143 L716.168 203.675 Q716.168 207.356 717.603 209.208 Q719.038 211.036 721.908 211.036 Q725.358 211.036 727.348 208.837 Q729.362 206.638 729.362 202.842 L729.362 188.143 L733.621 188.143 L733.621 214.069 L729.362 214.069 L729.362 210.087 Q727.811 212.448 725.751 213.606 Q723.714 214.74 721.006 214.74 Q716.538 214.74 714.223 211.962 Q711.909 209.184 711.909 203.837 M722.626 187.518 L722.626 187.518 Z" fill="#000000" fill-rule="evenodd" fill-opacity="1" /><path clip-path="url(#clip390)" d="M764.57 200.041 L764.57 202.124 L744.987 202.124 Q745.265 206.522 747.626 208.837 Q750.01 211.129 754.246 211.129 Q756.7 211.129 758.992 210.527 Q761.306 209.925 763.575 208.721 L763.575 212.749 Q761.283 213.721 758.876 214.231 Q756.468 214.74 753.992 214.74 Q747.788 214.74 744.154 211.129 Q740.543 207.518 740.543 201.36 Q740.543 194.995 743.969 191.268 Q747.418 187.518 753.251 187.518 Q758.482 187.518 761.515 190.897 Q764.57 194.254 764.57 200.041 M760.311 198.791 Q760.265 195.296 758.343 193.212 Q756.445 191.129 753.297 191.129 Q749.732 191.129 747.58 193.143 Q745.45 195.157 745.126 198.814 L760.311 198.791 Z" fill="#000000" fill-rule="evenodd" fill-opacity="1" /></svg>
