<?xml version="1.0" encoding="utf-8"?>
<svg xmlns="http://www.w3.org/2000/svg" xmlns:xlink="http://www.w3.org/1999/xlink" width="600" height="400" viewBox="0 0 2400 1600">
<defs>
  <clipPath id="clip520">
    <rect x="0" y="0" width="2400" height="1600"/>
  </clipPath>
</defs>
<path clip-path="url(#clip520)" d="
M0 1600 L2400 1600 L2400 0 L0 0  Z
  " fill="#ffffff" fill-rule="evenodd" fill-opacity="1"/>
<defs>
  <clipPath id="clip521">
    <rect x="480" y="0" width="1681" height="1600"/>
  </clipPath>
</defs>
<path clip-path="url(#clip520)" d="
M174.149 1423.18 L2352.76 1423.18 L2352.76 47.2441 L174.149 47.2441  Z
  " fill="#ffffff" fill-rule="evenodd" fill-opacity="1"/>
<defs>
  <clipPath id="clip522">
    <rect x="174" y="47" width="2180" height="1377"/>
  </clipPath>
</defs>
<polyline clip-path="url(#clip522)" style="stroke:#000000; stroke-linecap:round; stroke-linejoin:round; stroke-width:2; stroke-opacity:0.1; fill:none" points="
  174.149,1423.18 174.149,47.2441 
  "/>
<polyline clip-path="url(#clip522)" style="stroke:#000000; stroke-linecap:round; stroke-linejoin:round; stroke-width:2; stroke-opacity:0.1; fill:none" points="
  686.762,1423.18 686.762,47.2441 
  "/>
<polyline clip-path="url(#clip522)" style="stroke:#000000; stroke-linecap:round; stroke-linejoin:round; stroke-width:2; stroke-opacity:0.1; fill:none" points="
  1199.38,1423.18 1199.38,47.2441 
  "/>
<polyline clip-path="url(#clip522)" style="stroke:#000000; stroke-linecap:round; stroke-linejoin:round; stroke-width:2; stroke-opacity:0.1; fill:none" points="
  1711.99,1423.18 1711.99,47.2441 
  "/>
<polyline clip-path="url(#clip522)" style="stroke:#000000; stroke-linecap:round; stroke-linejoin:round; stroke-width:2; stroke-opacity:0.1; fill:none" points="
  2224.6,1423.18 2224.6,47.2441 
  "/>
<polyline clip-path="url(#clip520)" style="stroke:#000000; stroke-linecap:round; stroke-linejoin:round; stroke-width:4; stroke-opacity:1; fill:none" points="
  174.149,1423.18 2352.76,1423.18 
  "/>
<polyline clip-path="url(#clip520)" style="stroke:#000000; stroke-linecap:round; stroke-linejoin:round; stroke-width:4; stroke-opacity:1; fill:none" points="
  174.149,1423.18 174.149,1404.28 
  "/>
<polyline clip-path="url(#clip520)" style="stroke:#000000; stroke-linecap:round; stroke-linejoin:round; stroke-width:4; stroke-opacity:1; fill:none" points="
  686.762,1423.18 686.762,1404.28 
  "/>
<polyline clip-path="url(#clip520)" style="stroke:#000000; stroke-linecap:round; stroke-linejoin:round; stroke-width:4; stroke-opacity:1; fill:none" points="
  1199.38,1423.18 1199.38,1404.28 
  "/>
<polyline clip-path="url(#clip520)" style="stroke:#000000; stroke-linecap:round; stroke-linejoin:round; stroke-width:4; stroke-opacity:1; fill:none" points="
  1711.99,1423.18 1711.99,1404.28 
  "/>
<polyline clip-path="url(#clip520)" style="stroke:#000000; stroke-linecap:round; stroke-linejoin:round; stroke-width:4; stroke-opacity:1; fill:none" points="
  2224.6,1423.18 2224.6,1404.28 
  "/>
<path clip-path="url(#clip520)" d="M174.149 1454.1 Q170.538 1454.1 168.709 1457.66 Q166.904 1461.2 166.904 1468.33 Q166.904 1475.44 168.709 1479.01 Q170.538 1482.55 174.149 1482.55 Q177.783 1482.55 179.589 1479.01 Q181.417 1475.44 181.417 1468.33 Q181.417 1461.2 179.589 1457.66 Q177.783 1454.1 174.149 1454.1 M174.149 1450.39 Q179.959 1450.39 183.015 1455 Q186.093 1459.58 186.093 1468.33 Q186.093 1477.06 183.015 1481.67 Q179.959 1486.25 174.149 1486.25 Q168.339 1486.25 165.26 1481.67 Q162.205 1477.06 162.205 1468.33 Q162.205 1459.58 165.26 1455 Q168.339 1450.39 174.149 1450.39 Z" fill="#000000" fill-rule="evenodd" fill-opacity="1" /><path clip-path="url(#clip520)" d="M665.536 1481.64 L681.855 1481.64 L681.855 1485.58 L659.911 1485.58 L659.911 1481.64 Q662.573 1478.89 667.156 1474.26 Q671.762 1469.61 672.943 1468.27 Q675.188 1465.74 676.068 1464.01 Q676.971 1462.25 676.971 1460.56 Q676.971 1457.8 675.026 1456.07 Q673.105 1454.33 670.003 1454.33 Q667.804 1454.33 665.35 1455.09 Q662.92 1455.86 660.142 1457.41 L660.142 1452.69 Q662.966 1451.55 665.42 1450.97 Q667.874 1450.39 669.911 1450.39 Q675.281 1450.39 678.475 1453.08 Q681.67 1455.77 681.67 1460.26 Q681.67 1462.39 680.86 1464.31 Q680.073 1466.2 677.966 1468.8 Q677.387 1469.47 674.286 1472.69 Q671.184 1475.88 665.536 1481.64 Z" fill="#000000" fill-rule="evenodd" fill-opacity="1" /><path clip-path="url(#clip520)" d="M701.67 1454.1 Q698.059 1454.1 696.23 1457.66 Q694.424 1461.2 694.424 1468.33 Q694.424 1475.44 696.23 1479.01 Q698.059 1482.55 701.67 1482.55 Q705.304 1482.55 707.109 1479.01 Q708.938 1475.44 708.938 1468.33 Q708.938 1461.2 707.109 1457.66 Q705.304 1454.1 701.67 1454.1 M701.67 1450.39 Q707.48 1450.39 710.535 1455 Q713.614 1459.58 713.614 1468.33 Q713.614 1477.06 710.535 1481.67 Q707.48 1486.25 701.67 1486.25 Q695.86 1486.25 692.781 1481.67 Q689.725 1477.06 689.725 1468.33 Q689.725 1459.58 692.781 1455 Q695.86 1450.39 701.67 1450.39 Z" fill="#000000" fill-rule="evenodd" fill-opacity="1" /><path clip-path="url(#clip520)" d="M1187.55 1455.09 L1175.74 1473.54 L1187.55 1473.54 L1187.55 1455.09 M1186.32 1451.02 L1192.2 1451.02 L1192.2 1473.54 L1197.13 1473.54 L1197.13 1477.43 L1192.2 1477.43 L1192.2 1485.58 L1187.55 1485.58 L1187.55 1477.43 L1171.95 1477.43 L1171.95 1472.92 L1186.32 1451.02 Z" fill="#000000" fill-rule="evenodd" fill-opacity="1" /><path clip-path="url(#clip520)" d="M1214.86 1454.1 Q1211.25 1454.1 1209.42 1457.66 Q1207.62 1461.2 1207.62 1468.33 Q1207.62 1475.44 1209.42 1479.01 Q1211.25 1482.55 1214.86 1482.55 Q1218.5 1482.55 1220.3 1479.01 Q1222.13 1475.44 1222.13 1468.33 Q1222.13 1461.2 1220.3 1457.66 Q1218.5 1454.1 1214.86 1454.1 M1214.86 1450.39 Q1220.67 1450.39 1223.73 1455 Q1226.81 1459.58 1226.81 1468.33 Q1226.81 1477.06 1223.73 1481.67 Q1220.67 1486.25 1214.86 1486.25 Q1209.05 1486.25 1205.97 1481.67 Q1202.92 1477.06 1202.92 1468.33 Q1202.92 1459.58 1205.97 1455 Q1209.05 1450.39 1214.86 1450.39 Z" fill="#000000" fill-rule="evenodd" fill-opacity="1" /><path clip-path="url(#clip520)" d="M1697.39 1466.44 Q1694.25 1466.44 1692.39 1468.59 Q1690.57 1470.74 1690.57 1474.49 Q1690.57 1478.22 1692.39 1480.39 Q1694.25 1482.55 1697.39 1482.55 Q1700.54 1482.55 1702.37 1480.39 Q1704.22 1478.22 1704.22 1474.49 Q1704.22 1470.74 1702.37 1468.59 Q1700.54 1466.44 1697.39 1466.44 M1706.68 1451.78 L1706.68 1456.04 Q1704.92 1455.21 1703.11 1454.77 Q1701.33 1454.33 1699.57 1454.33 Q1694.94 1454.33 1692.49 1457.45 Q1690.06 1460.58 1689.71 1466.9 Q1691.07 1464.89 1693.14 1463.82 Q1695.2 1462.73 1697.67 1462.73 Q1702.88 1462.73 1705.89 1465.9 Q1708.92 1469.05 1708.92 1474.49 Q1708.92 1479.82 1705.77 1483.03 Q1702.63 1486.25 1697.39 1486.25 Q1691.4 1486.25 1688.23 1481.67 Q1685.06 1477.06 1685.06 1468.33 Q1685.06 1460.14 1688.95 1455.28 Q1692.83 1450.39 1699.39 1450.39 Q1701.14 1450.39 1702.93 1450.74 Q1704.73 1451.09 1706.68 1451.78 Z" fill="#000000" fill-rule="evenodd" fill-opacity="1" /><path clip-path="url(#clip520)" d="M1726.98 1454.1 Q1723.37 1454.1 1721.54 1457.66 Q1719.73 1461.2 1719.73 1468.33 Q1719.73 1475.44 1721.54 1479.01 Q1723.37 1482.55 1726.98 1482.55 Q1730.61 1482.55 1732.42 1479.01 Q1734.25 1475.44 1734.25 1468.33 Q1734.25 1461.2 1732.42 1457.66 Q1730.61 1454.1 1726.98 1454.1 M1726.98 1450.39 Q1732.79 1450.39 1735.84 1455 Q1738.92 1459.58 1738.92 1468.33 Q1738.92 1477.06 1735.84 1481.67 Q1732.79 1486.25 1726.98 1486.25 Q1721.17 1486.25 1718.09 1481.67 Q1715.03 1477.06 1715.03 1468.33 Q1715.03 1459.58 1718.09 1455 Q1721.17 1450.39 1726.98 1450.39 Z" fill="#000000" fill-rule="evenodd" fill-opacity="1" /><path clip-path="url(#clip520)" d="M2209.48 1469.17 Q2206.14 1469.17 2204.22 1470.95 Q2202.32 1472.73 2202.32 1475.86 Q2202.32 1478.98 2204.22 1480.77 Q2206.14 1482.55 2209.48 1482.55 Q2212.81 1482.55 2214.73 1480.77 Q2216.65 1478.96 2216.65 1475.86 Q2216.65 1472.73 2214.73 1470.95 Q2212.83 1469.17 2209.48 1469.17 M2204.8 1467.18 Q2201.79 1466.44 2200.1 1464.38 Q2198.43 1462.32 2198.43 1459.35 Q2198.43 1455.21 2201.37 1452.8 Q2204.34 1450.39 2209.48 1450.39 Q2214.64 1450.39 2217.58 1452.8 Q2220.52 1455.21 2220.52 1459.35 Q2220.52 1462.32 2218.83 1464.38 Q2217.16 1466.44 2214.17 1467.18 Q2217.55 1467.96 2219.43 1470.26 Q2221.33 1472.55 2221.33 1475.86 Q2221.33 1480.88 2218.25 1483.57 Q2215.19 1486.25 2209.48 1486.25 Q2203.76 1486.25 2200.68 1483.57 Q2197.62 1480.88 2197.62 1475.86 Q2197.62 1472.55 2199.52 1470.26 Q2201.42 1467.96 2204.8 1467.18 M2203.09 1459.79 Q2203.09 1462.48 2204.75 1463.98 Q2206.44 1465.49 2209.48 1465.49 Q2212.48 1465.49 2214.17 1463.98 Q2215.89 1462.48 2215.89 1459.79 Q2215.89 1457.11 2214.17 1455.6 Q2212.48 1454.1 2209.48 1454.1 Q2206.44 1454.1 2204.75 1455.6 Q2203.09 1457.11 2203.09 1459.79 Z" fill="#000000" fill-rule="evenodd" fill-opacity="1" /><path clip-path="url(#clip520)" d="M2239.64 1454.1 Q2236.03 1454.1 2234.2 1457.66 Q2232.39 1461.2 2232.39 1468.33 Q2232.39 1475.44 2234.2 1479.01 Q2236.03 1482.55 2239.64 1482.55 Q2243.27 1482.55 2245.08 1479.01 Q2246.91 1475.44 2246.91 1468.33 Q2246.91 1461.2 2245.08 1457.66 Q2243.27 1454.1 2239.64 1454.1 M2239.64 1450.39 Q2245.45 1450.39 2248.5 1455 Q2251.58 1459.58 2251.58 1468.33 Q2251.58 1477.06 2248.5 1481.67 Q2245.45 1486.25 2239.64 1486.25 Q2233.83 1486.25 2230.75 1481.67 Q2227.69 1477.06 2227.69 1468.33 Q2227.69 1459.58 2230.75 1455 Q2233.83 1450.39 2239.64 1450.39 Z" fill="#000000" fill-rule="evenodd" fill-opacity="1" /><path clip-path="url(#clip520)" d="M923.667 1525.81 L923.667 1562.76 L931.433 1562.76 Q941.268 1562.76 945.82 1558.3 Q950.403 1553.85 950.403 1544.24 Q950.403 1534.69 945.82 1530.26 Q941.268 1525.81 931.433 1525.81 L923.667 1525.81 M917.238 1520.52 L930.446 1520.52 Q944.26 1520.52 950.721 1526.28 Q957.182 1532.01 957.182 1544.24 Q957.182 1556.52 950.689 1562.28 Q944.196 1568.04 930.446 1568.04 L917.238 1568.04 L917.238 1520.52 Z" fill="#000000" fill-rule="evenodd" fill-opacity="1" /><path clip-path="url(#clip520)" d="M983.377 1550.12 Q976.279 1550.12 973.542 1551.75 Q970.805 1553.37 970.805 1557.29 Q970.805 1560.4 972.842 1562.25 Q974.911 1564.07 978.444 1564.07 Q983.314 1564.07 986.242 1560.63 Q989.202 1557.16 989.202 1551.43 L989.202 1550.12 L983.377 1550.12 M995.058 1547.71 L995.058 1568.04 L989.202 1568.04 L989.202 1562.63 Q987.197 1565.88 984.205 1567.44 Q981.213 1568.97 976.884 1568.97 Q971.41 1568.97 968.163 1565.91 Q964.949 1562.82 964.949 1557.67 Q964.949 1551.65 968.959 1548.6 Q973.001 1545.54 980.99 1545.54 L989.202 1545.54 L989.202 1544.97 Q989.202 1540.93 986.528 1538.73 Q983.886 1536.5 979.08 1536.5 Q976.025 1536.5 973.128 1537.23 Q970.232 1537.97 967.558 1539.43 L967.558 1534.02 Q970.773 1532.78 973.797 1532.17 Q976.821 1531.54 979.685 1531.54 Q987.419 1531.54 991.239 1535.55 Q995.058 1539.56 995.058 1547.71 Z" fill="#000000" fill-rule="evenodd" fill-opacity="1" /><path clip-path="url(#clip520)" d="M1021.95 1571.35 Q1019.47 1577.72 1017.12 1579.66 Q1014.76 1581.6 1010.81 1581.6 L1006.13 1581.6 L1006.13 1576.7 L1009.57 1576.7 Q1011.99 1576.7 1013.33 1575.56 Q1014.66 1574.41 1016.29 1570.14 L1017.34 1567.47 L1002.92 1532.4 L1009.13 1532.4 L1020.27 1560.28 L1031.41 1532.4 L1037.61 1532.4 L1021.95 1571.35 Z" fill="#000000" fill-rule="evenodd" fill-opacity="1" /><path clip-path="url(#clip520)" d="M1082.62 1550.12 Q1075.52 1550.12 1072.78 1551.75 Q1070.05 1553.37 1070.05 1557.29 Q1070.05 1560.4 1072.08 1562.25 Q1074.15 1564.07 1077.69 1564.07 Q1082.55 1564.07 1085.48 1560.63 Q1088.44 1557.16 1088.44 1551.43 L1088.44 1550.12 L1082.62 1550.12 M1094.3 1547.71 L1094.3 1568.04 L1088.44 1568.04 L1088.44 1562.63 Q1086.44 1565.88 1083.45 1567.44 Q1080.45 1568.97 1076.13 1568.97 Q1070.65 1568.97 1067.4 1565.91 Q1064.19 1562.82 1064.19 1557.67 Q1064.19 1551.65 1068.2 1548.6 Q1072.24 1545.54 1080.23 1545.54 L1088.44 1545.54 L1088.44 1544.97 Q1088.44 1540.93 1085.77 1538.73 Q1083.13 1536.5 1078.32 1536.5 Q1075.27 1536.5 1072.37 1537.23 Q1069.47 1537.97 1066.8 1539.43 L1066.8 1534.02 Q1070.01 1532.78 1073.04 1532.17 Q1076.06 1531.54 1078.93 1531.54 Q1086.66 1531.54 1090.48 1535.55 Q1094.3 1539.56 1094.3 1547.71 Z" fill="#000000" fill-rule="evenodd" fill-opacity="1" /><path clip-path="url(#clip520)" d="M1124.41 1518.52 L1124.41 1523.39 L1118.81 1523.39 Q1115.66 1523.39 1114.42 1524.66 Q1113.21 1525.93 1113.21 1529.24 L1113.21 1532.4 L1122.85 1532.4 L1122.85 1536.95 L1113.21 1536.95 L1113.21 1568.04 L1107.32 1568.04 L1107.32 1536.95 L1101.72 1536.95 L1101.72 1532.4 L1107.32 1532.4 L1107.32 1529.91 Q1107.32 1523.96 1110.09 1521.26 Q1112.86 1518.52 1118.87 1518.52 L1124.41 1518.52 Z" fill="#000000" fill-rule="evenodd" fill-opacity="1" /><path clip-path="url(#clip520)" d="M1133.96 1522.27 L1133.96 1532.4 L1146.02 1532.4 L1146.02 1536.95 L1133.96 1536.95 L1133.96 1556.3 Q1133.96 1560.66 1135.14 1561.9 Q1136.35 1563.14 1140.01 1563.14 L1146.02 1563.14 L1146.02 1568.04 L1140.01 1568.04 Q1133.23 1568.04 1130.65 1565.53 Q1128.07 1562.98 1128.07 1556.3 L1128.07 1536.95 L1123.77 1536.95 L1123.77 1532.4 L1128.07 1532.4 L1128.07 1522.27 L1133.96 1522.27 Z" fill="#000000" fill-rule="evenodd" fill-opacity="1" /><path clip-path="url(#clip520)" d="M1184.22 1548.76 L1184.22 1551.62 L1157.29 1551.62 Q1157.67 1557.67 1160.92 1560.85 Q1164.2 1564 1170.02 1564 Q1173.39 1564 1176.54 1563.17 Q1179.73 1562.35 1182.85 1560.69 L1182.85 1566.23 Q1179.7 1567.57 1176.39 1568.27 Q1173.08 1568.97 1169.67 1568.97 Q1161.14 1568.97 1156.14 1564 Q1151.18 1559.04 1151.18 1550.57 Q1151.18 1541.82 1155.89 1536.69 Q1160.63 1531.54 1168.65 1531.54 Q1175.84 1531.54 1180.01 1536.18 Q1184.22 1540.8 1184.22 1548.76 M1178.36 1547.04 Q1178.3 1542.23 1175.65 1539.37 Q1173.04 1536.5 1168.71 1536.5 Q1163.81 1536.5 1160.85 1539.27 Q1157.92 1542.04 1157.48 1547.07 L1178.36 1547.04 Z" fill="#000000" fill-rule="evenodd" fill-opacity="1" /><path clip-path="url(#clip520)" d="M1214.48 1537.87 Q1213.5 1537.3 1212.32 1537.04 Q1211.17 1536.76 1209.77 1536.76 Q1204.81 1536.76 1202.13 1540 Q1199.49 1543.22 1199.49 1549.27 L1199.49 1568.04 L1193.6 1568.04 L1193.6 1532.4 L1199.49 1532.4 L1199.49 1537.93 Q1201.34 1534.69 1204.3 1533.13 Q1207.26 1531.54 1211.49 1531.54 Q1212.1 1531.54 1212.83 1531.63 Q1213.56 1531.7 1214.45 1531.85 L1214.48 1537.87 Z" fill="#000000" fill-rule="evenodd" fill-opacity="1" /><path clip-path="url(#clip520)" d="M1247.01 1562.7 L1247.01 1581.6 L1241.12 1581.6 L1241.12 1532.4 L1247.01 1532.4 L1247.01 1537.81 Q1248.86 1534.62 1251.66 1533.1 Q1254.49 1531.54 1258.41 1531.54 Q1264.9 1531.54 1268.94 1536.69 Q1273.02 1541.85 1273.02 1550.25 Q1273.02 1558.65 1268.94 1563.81 Q1264.9 1568.97 1258.41 1568.97 Q1254.49 1568.97 1251.66 1567.44 Q1248.86 1565.88 1247.01 1562.7 M1266.94 1550.25 Q1266.94 1543.79 1264.26 1540.13 Q1261.62 1536.44 1256.98 1536.44 Q1252.33 1536.44 1249.65 1540.13 Q1247.01 1543.79 1247.01 1550.25 Q1247.01 1556.71 1249.65 1560.4 Q1252.33 1564.07 1256.98 1564.07 Q1261.62 1564.07 1264.26 1560.4 Q1266.94 1556.71 1266.94 1550.25 Z" fill="#000000" fill-rule="evenodd" fill-opacity="1" /><path clip-path="url(#clip520)" d="M1282.72 1518.52 L1288.58 1518.52 L1288.58 1568.04 L1282.72 1568.04 L1282.72 1518.52 Z" fill="#000000" fill-rule="evenodd" fill-opacity="1" /><path clip-path="url(#clip520)" d="M1317.04 1550.12 Q1309.94 1550.12 1307.2 1551.75 Q1304.46 1553.37 1304.46 1557.29 Q1304.46 1560.4 1306.5 1562.25 Q1308.57 1564.07 1312.1 1564.07 Q1316.97 1564.07 1319.9 1560.63 Q1322.86 1557.16 1322.86 1551.43 L1322.86 1550.12 L1317.04 1550.12 M1328.72 1547.71 L1328.72 1568.04 L1322.86 1568.04 L1322.86 1562.63 Q1320.86 1565.88 1317.86 1567.44 Q1314.87 1568.97 1310.54 1568.97 Q1305.07 1568.97 1301.82 1565.91 Q1298.61 1562.82 1298.61 1557.67 Q1298.61 1551.65 1302.62 1548.6 Q1306.66 1545.54 1314.65 1545.54 L1322.86 1545.54 L1322.86 1544.97 Q1322.86 1540.93 1320.19 1538.73 Q1317.55 1536.5 1312.74 1536.5 Q1309.68 1536.5 1306.79 1537.23 Q1303.89 1537.97 1301.22 1539.43 L1301.22 1534.02 Q1304.43 1532.78 1307.46 1532.17 Q1310.48 1531.54 1313.34 1531.54 Q1321.08 1531.54 1324.9 1535.55 Q1328.72 1539.56 1328.72 1547.71 Z" fill="#000000" fill-rule="evenodd" fill-opacity="1" /><path clip-path="url(#clip520)" d="M1370.41 1546.53 L1370.41 1568.04 L1364.56 1568.04 L1364.56 1546.72 Q1364.56 1541.66 1362.58 1539.14 Q1360.61 1536.63 1356.66 1536.63 Q1351.92 1536.63 1349.18 1539.65 Q1346.45 1542.68 1346.45 1547.9 L1346.45 1568.04 L1340.56 1568.04 L1340.56 1532.4 L1346.45 1532.4 L1346.45 1537.93 Q1348.55 1534.72 1351.38 1533.13 Q1354.24 1531.54 1357.97 1531.54 Q1364.11 1531.54 1367.26 1535.36 Q1370.41 1539.14 1370.41 1546.53 Z" fill="#000000" fill-rule="evenodd" fill-opacity="1" /><path clip-path="url(#clip520)" d="M1387.89 1522.27 L1387.89 1532.4 L1399.95 1532.4 L1399.95 1536.95 L1387.89 1536.95 L1387.89 1556.3 Q1387.89 1560.66 1389.06 1561.9 Q1390.27 1563.14 1393.93 1563.14 L1399.95 1563.14 L1399.95 1568.04 L1393.93 1568.04 Q1387.15 1568.04 1384.58 1565.53 Q1382 1562.98 1382 1556.3 L1382 1536.95 L1377.7 1536.95 L1377.7 1532.4 L1382 1532.4 L1382 1522.27 L1387.89 1522.27 Z" fill="#000000" fill-rule="evenodd" fill-opacity="1" /><path clip-path="url(#clip520)" d="M1407.65 1532.4 L1413.51 1532.4 L1413.51 1568.04 L1407.65 1568.04 L1407.65 1532.4 M1407.65 1518.52 L1413.51 1518.52 L1413.51 1525.93 L1407.65 1525.93 L1407.65 1518.52 Z" fill="#000000" fill-rule="evenodd" fill-opacity="1" /><path clip-path="url(#clip520)" d="M1455.39 1546.53 L1455.39 1568.04 L1449.54 1568.04 L1449.54 1546.72 Q1449.54 1541.66 1447.56 1539.14 Q1445.59 1536.63 1441.64 1536.63 Q1436.9 1536.63 1434.16 1539.65 Q1431.43 1542.68 1431.43 1547.9 L1431.43 1568.04 L1425.54 1568.04 L1425.54 1532.4 L1431.43 1532.4 L1431.43 1537.93 Q1433.53 1534.72 1436.36 1533.13 Q1439.23 1531.54 1442.95 1531.54 Q1449.09 1531.54 1452.24 1535.36 Q1455.39 1539.14 1455.39 1546.53 Z" fill="#000000" fill-rule="evenodd" fill-opacity="1" /><path clip-path="url(#clip520)" d="M1490.53 1549.81 Q1490.53 1543.44 1487.89 1539.94 Q1485.28 1536.44 1480.54 1536.44 Q1475.83 1536.44 1473.19 1539.94 Q1470.58 1543.44 1470.58 1549.81 Q1470.58 1556.14 1473.19 1559.64 Q1475.83 1563.14 1480.54 1563.14 Q1485.28 1563.14 1487.89 1559.64 Q1490.53 1556.14 1490.53 1549.81 M1496.39 1563.62 Q1496.39 1572.72 1492.35 1577.15 Q1488.31 1581.6 1479.97 1581.6 Q1476.88 1581.6 1474.14 1581.13 Q1471.4 1580.68 1468.83 1579.72 L1468.83 1574.03 Q1471.4 1575.43 1473.92 1576.1 Q1476.43 1576.76 1479.04 1576.76 Q1484.8 1576.76 1487.67 1573.74 Q1490.53 1570.75 1490.53 1564.67 L1490.53 1561.77 Q1488.72 1564.92 1485.89 1566.48 Q1483.05 1568.04 1479.11 1568.04 Q1472.55 1568.04 1468.54 1563.05 Q1464.53 1558.05 1464.53 1549.81 Q1464.53 1541.53 1468.54 1536.53 Q1472.55 1531.54 1479.11 1531.54 Q1483.05 1531.54 1485.89 1533.1 Q1488.72 1534.66 1490.53 1537.81 L1490.53 1532.4 L1496.39 1532.4 L1496.39 1563.62 Z" fill="#000000" fill-rule="evenodd" fill-opacity="1" /><path clip-path="url(#clip520)" d="M1543.24 1518.58 Q1538.98 1525.9 1536.91 1533.06 Q1534.84 1540.23 1534.84 1547.58 Q1534.84 1554.93 1536.91 1562.16 Q1539.01 1569.35 1543.24 1576.64 L1538.15 1576.64 Q1533.37 1569.16 1530.99 1561.93 Q1528.63 1554.71 1528.63 1547.58 Q1528.63 1540.48 1530.99 1533.29 Q1533.34 1526.09 1538.15 1518.58 L1543.24 1518.58 Z" fill="#000000" fill-rule="evenodd" fill-opacity="1" /><path clip-path="url(#clip520)" d="M1578.06 1537.81 L1578.06 1518.52 L1583.92 1518.52 L1583.92 1568.04 L1578.06 1568.04 L1578.06 1562.7 Q1576.22 1565.88 1573.38 1567.44 Q1570.58 1568.97 1566.64 1568.97 Q1560.17 1568.97 1556.1 1563.81 Q1552.06 1558.65 1552.06 1550.25 Q1552.06 1541.85 1556.1 1536.69 Q1560.17 1531.54 1566.64 1531.54 Q1570.58 1531.54 1573.38 1533.1 Q1576.22 1534.62 1578.06 1537.81 M1558.11 1550.25 Q1558.11 1556.71 1560.75 1560.4 Q1563.42 1564.07 1568.07 1564.07 Q1572.71 1564.07 1575.39 1560.4 Q1578.06 1556.71 1578.06 1550.25 Q1578.06 1543.79 1575.39 1540.13 Q1572.71 1536.44 1568.07 1536.44 Q1563.42 1536.44 1560.75 1540.13 Q1558.11 1543.79 1558.11 1550.25 Z" fill="#000000" fill-rule="evenodd" fill-opacity="1" /><path clip-path="url(#clip520)" d="M1595.06 1518.58 L1600.15 1518.58 Q1604.92 1526.09 1607.28 1533.29 Q1609.67 1540.48 1609.67 1547.58 Q1609.67 1554.71 1607.28 1561.93 Q1604.92 1569.16 1600.15 1576.64 L1595.06 1576.64 Q1599.29 1569.35 1601.36 1562.16 Q1603.46 1554.93 1603.46 1547.58 Q1603.46 1540.23 1601.36 1533.06 Q1599.29 1525.9 1595.06 1518.58 Z" fill="#000000" fill-rule="evenodd" fill-opacity="1" /><polyline clip-path="url(#clip522)" style="stroke:#000000; stroke-linecap:round; stroke-linejoin:round; stroke-width:2; stroke-opacity:0.1; fill:none" points="
  174.149,1327.65 2352.76,1327.65 
  "/>
<polyline clip-path="url(#clip522)" style="stroke:#000000; stroke-linecap:round; stroke-linejoin:round; stroke-width:2; stroke-opacity:0.1; fill:none" points="
  174.149,974.894 2352.76,974.894 
  "/>
<polyline clip-path="url(#clip522)" style="stroke:#000000; stroke-linecap:round; stroke-linejoin:round; stroke-width:2; stroke-opacity:0.1; fill:none" points="
  174.149,622.144 2352.76,622.144 
  "/>
<polyline clip-path="url(#clip522)" style="stroke:#000000; stroke-linecap:round; stroke-linejoin:round; stroke-width:2; stroke-opacity:0.1; fill:none" points="
  174.149,269.393 2352.76,269.393 
  "/>
<polyline clip-path="url(#clip520)" style="stroke:#000000; stroke-linecap:round; stroke-linejoin:round; stroke-width:4; stroke-opacity:1; fill:none" points="
  174.149,1423.18 174.149,47.2441 
  "/>
<polyline clip-path="url(#clip520)" style="stroke:#000000; stroke-linecap:round; stroke-linejoin:round; stroke-width:4; stroke-opacity:1; fill:none" points="
  174.149,1327.65 193.047,1327.65 
  "/>
<polyline clip-path="url(#clip520)" style="stroke:#000000; stroke-linecap:round; stroke-linejoin:round; stroke-width:4; stroke-opacity:1; fill:none" points="
  174.149,974.894 193.047,974.894 
  "/>
<polyline clip-path="url(#clip520)" style="stroke:#000000; stroke-linecap:round; stroke-linejoin:round; stroke-width:4; stroke-opacity:1; fill:none" points="
  174.149,622.144 193.047,622.144 
  "/>
<polyline clip-path="url(#clip520)" style="stroke:#000000; stroke-linecap:round; stroke-linejoin:round; stroke-width:4; stroke-opacity:1; fill:none" points="
  174.149,269.393 193.047,269.393 
  "/>
<path clip-path="url(#clip520)" d="M126.205 1313.44 Q122.593 1313.44 120.765 1317.01 Q118.959 1320.55 118.959 1327.68 Q118.959 1334.79 120.765 1338.35 Q122.593 1341.89 126.205 1341.89 Q129.839 1341.89 131.644 1338.35 Q133.473 1334.79 133.473 1327.68 Q133.473 1320.55 131.644 1317.01 Q129.839 1313.44 126.205 1313.44 M126.205 1309.74 Q132.015 1309.74 135.07 1314.35 Q138.149 1318.93 138.149 1327.68 Q138.149 1336.41 135.07 1341.01 Q132.015 1345.6 126.205 1345.6 Q120.394 1345.6 117.316 1341.01 Q114.26 1336.41 114.26 1327.68 Q114.26 1318.93 117.316 1314.35 Q120.394 1309.74 126.205 1309.74 Z" fill="#000000" fill-rule="evenodd" fill-opacity="1" /><path clip-path="url(#clip520)" d="M118.242 988.239 L125.88 988.239 L125.88 961.874 L117.57 963.54 L117.57 959.281 L125.834 957.614 L130.51 957.614 L130.51 988.239 L138.149 988.239 L138.149 992.174 L118.242 992.174 L118.242 988.239 Z" fill="#000000" fill-rule="evenodd" fill-opacity="1" /><path clip-path="url(#clip520)" d="M121.83 635.488 L138.149 635.488 L138.149 639.424 L116.205 639.424 L116.205 635.488 Q118.867 632.734 123.45 628.104 Q128.056 623.451 129.237 622.109 Q131.482 619.586 132.362 617.85 Q133.265 616.09 133.265 614.401 Q133.265 611.646 131.32 609.91 Q129.399 608.174 126.297 608.174 Q124.098 608.174 121.644 608.938 Q119.214 609.701 116.436 611.252 L116.436 606.53 Q119.26 605.396 121.714 604.817 Q124.168 604.239 126.205 604.239 Q131.575 604.239 134.769 606.924 Q137.964 609.609 137.964 614.1 Q137.964 616.229 137.154 618.151 Q136.367 620.049 134.26 622.641 Q133.681 623.313 130.58 626.53 Q127.478 629.725 121.83 635.488 Z" fill="#000000" fill-rule="evenodd" fill-opacity="1" /><path clip-path="url(#clip520)" d="M131.019 268.039 Q134.376 268.756 136.251 271.025 Q138.149 273.293 138.149 276.626 Q138.149 281.742 134.63 284.543 Q131.112 287.344 124.63 287.344 Q122.455 287.344 120.14 286.904 Q117.848 286.488 115.394 285.631 L115.394 281.117 Q117.339 282.251 119.654 282.83 Q121.968 283.409 124.492 283.409 Q128.89 283.409 131.181 281.673 Q133.496 279.937 133.496 276.626 Q133.496 273.571 131.343 271.858 Q129.214 270.122 125.394 270.122 L121.367 270.122 L121.367 266.279 L125.58 266.279 Q129.029 266.279 130.857 264.914 Q132.686 263.525 132.686 260.932 Q132.686 258.27 130.788 256.858 Q128.913 255.423 125.394 255.423 Q123.473 255.423 121.274 255.84 Q119.075 256.256 116.436 257.136 L116.436 252.969 Q119.098 252.228 121.413 251.858 Q123.751 251.488 125.811 251.488 Q131.135 251.488 134.237 253.918 Q137.339 256.326 137.339 260.446 Q137.339 263.316 135.695 265.307 Q134.052 267.275 131.019 268.039 Z" fill="#000000" fill-rule="evenodd" fill-opacity="1" /><path clip-path="url(#clip520)" d="M21.7677 922.73 L58.7206 922.73 L58.7206 914.964 Q58.7206 905.129 54.2646 900.577 Q49.8086 895.994 40.1964 895.994 Q30.6479 895.994 26.2237 900.577 Q21.7677 905.129 21.7677 914.964 L21.7677 922.73 M16.4842 929.159 L16.4842 915.95 Q16.4842 902.137 22.2451 895.676 Q27.9743 889.214 40.1964 889.214 Q52.4822 889.214 58.2432 895.707 Q64.0042 902.2 64.0042 915.95 L64.0042 929.159 L16.4842 929.159 Z" fill="#000000" fill-rule="evenodd" fill-opacity="1" /><path clip-path="url(#clip520)" d="M33.8307 858.563 Q33.2578 859.55 33.0032 860.728 Q32.7167 861.874 32.7167 863.274 Q32.7167 868.239 35.9632 870.913 Q39.1779 873.555 45.2253 873.555 L64.0042 873.555 L64.0042 879.443 L28.3562 879.443 L28.3562 873.555 L33.8944 873.555 Q30.6479 871.709 29.0883 868.749 Q27.4968 865.789 27.4968 861.555 Q27.4968 860.951 27.5923 860.219 Q27.656 859.486 27.8151 858.595 L33.8307 858.563 Z" fill="#000000" fill-rule="evenodd" fill-opacity="1" /><path clip-path="url(#clip520)" d="M67.3143 837.588 Q73.68 840.071 75.6216 842.426 Q77.5631 844.782 77.5631 848.728 L77.5631 853.407 L72.6615 853.407 L72.6615 849.97 Q72.6615 847.551 71.5157 846.214 Q70.3699 844.877 66.1048 843.254 L63.4312 842.204 L28.3562 856.622 L28.3562 850.415 L56.238 839.275 L28.3562 828.135 L28.3562 821.929 L67.3143 837.588 Z" fill="#000000" fill-rule="evenodd" fill-opacity="1" /><path clip-path="url(#clip520)" d="M35.1993 786.09 Q31.2526 783.894 29.3747 780.838 Q27.4968 777.783 27.4968 773.645 Q27.4968 768.075 31.4117 765.051 Q35.2948 762.028 42.4881 762.028 L64.0042 762.028 L64.0042 767.916 L42.679 767.916 Q37.5546 767.916 35.072 769.73 Q32.5894 771.544 32.5894 775.268 Q32.5894 779.82 35.6131 782.461 Q38.6368 785.103 43.8567 785.103 L64.0042 785.103 L64.0042 790.991 L42.679 790.991 Q37.5228 790.991 35.072 792.806 Q32.5894 794.62 32.5894 798.408 Q32.5894 802.895 35.6449 805.537 Q38.6686 808.179 43.8567 808.179 L64.0042 808.179 L64.0042 814.067 L28.3562 814.067 L28.3562 808.179 L33.8944 808.179 Q30.616 806.174 29.0564 803.373 Q27.4968 800.572 27.4968 796.721 Q27.4968 792.838 29.4702 790.132 Q31.4436 787.395 35.1993 786.09 Z" fill="#000000" fill-rule="evenodd" fill-opacity="1" /><path clip-path="url(#clip520)" d="M46.0847 734.146 Q46.0847 741.243 47.7079 743.981 Q49.3312 746.718 53.2461 746.718 Q56.3653 746.718 58.2114 744.681 Q60.0256 742.612 60.0256 739.079 Q60.0256 734.209 56.5881 731.281 Q53.1188 728.321 47.3897 728.321 L46.0847 728.321 L46.0847 734.146 M43.6657 722.465 L64.0042 722.465 L64.0042 728.321 L58.5933 728.321 Q61.8398 730.326 63.3994 733.318 Q64.9272 736.31 64.9272 740.639 Q64.9272 746.113 61.8716 749.36 Q58.7843 752.574 53.6281 752.574 Q47.6125 752.574 44.5569 748.564 Q41.5014 744.522 41.5014 736.533 L41.5014 728.321 L40.9285 728.321 Q36.8862 728.321 34.6901 730.995 Q32.4621 733.636 32.4621 738.443 Q32.4621 741.498 33.1941 744.395 Q33.9262 747.291 35.3903 749.964 L29.9795 749.964 Q28.7381 746.75 28.1334 743.726 Q27.4968 740.702 27.4968 737.838 Q27.4968 730.103 31.5072 726.284 Q35.5176 722.465 43.6657 722.465 Z" fill="#000000" fill-rule="evenodd" fill-opacity="1" /><path clip-path="url(#clip520)" d="M29.4065 687.676 L34.9447 687.676 Q33.6716 690.159 33.035 692.832 Q32.3984 695.506 32.3984 698.37 Q32.3984 702.731 33.7352 704.927 Q35.072 707.091 37.7456 707.091 Q39.7826 707.091 40.9603 705.532 Q42.1061 703.972 43.1565 699.262 L43.6021 697.256 Q44.9389 691.018 47.3897 688.408 Q49.8086 685.766 54.1691 685.766 Q59.1344 685.766 62.0308 689.713 Q64.9272 693.628 64.9272 700.503 Q64.9272 703.368 64.3543 706.487 Q63.8132 709.574 62.6992 713.012 L56.6518 713.012 Q58.3387 709.765 59.198 706.614 Q60.0256 703.463 60.0256 700.376 Q60.0256 696.238 58.6251 694.01 Q57.1929 691.782 54.6147 691.782 Q52.2276 691.782 50.9545 693.405 Q49.6813 694.997 48.5037 700.439 L48.0262 702.476 Q46.8804 707.919 44.5251 710.338 Q42.138 712.757 38.0002 712.757 Q32.9713 712.757 30.2341 709.192 Q27.4968 705.627 27.4968 699.071 Q27.4968 695.824 27.9743 692.96 Q28.4517 690.095 29.4065 687.676 Z" fill="#000000" fill-rule="evenodd" fill-opacity="1" /><path clip-path="url(#clip520)" d="M29.4065 653.715 L34.9447 653.715 Q33.6716 656.198 33.035 658.871 Q32.3984 661.545 32.3984 664.409 Q32.3984 668.77 33.7352 670.966 Q35.072 673.13 37.7456 673.13 Q39.7826 673.13 40.9603 671.571 Q42.1061 670.011 43.1565 665.301 L43.6021 663.295 Q44.9389 657.057 47.3897 654.447 Q49.8086 651.805 54.1691 651.805 Q59.1344 651.805 62.0308 655.752 Q64.9272 659.667 64.9272 666.542 Q64.9272 669.406 64.3543 672.526 Q63.8132 675.613 62.6992 679.051 L56.6518 679.051 Q58.3387 675.804 59.198 672.653 Q60.0256 669.502 60.0256 666.415 Q60.0256 662.277 58.6251 660.049 Q57.1929 657.821 54.6147 657.821 Q52.2276 657.821 50.9545 659.444 Q49.6813 661.036 48.5037 666.478 L48.0262 668.515 Q46.8804 673.958 44.5251 676.377 Q42.138 678.796 38.0002 678.796 Q32.9713 678.796 30.2341 675.231 Q27.4968 671.666 27.4968 665.11 Q27.4968 661.863 27.9743 658.999 Q28.4517 656.134 29.4065 653.715 Z" fill="#000000" fill-rule="evenodd" fill-opacity="1" /><path clip-path="url(#clip520)" d="M14.5426 607.691 Q21.8632 611.956 29.0246 614.025 Q36.186 616.094 43.5384 616.094 Q50.8908 616.094 58.1159 614.025 Q65.3091 611.924 72.5979 607.691 L72.5979 612.784 Q65.1182 617.558 57.8931 619.945 Q50.668 622.3 43.5384 622.3 Q36.4406 622.3 29.2474 619.945 Q22.0542 617.59 14.5426 612.784 L14.5426 607.691 Z" fill="#000000" fill-rule="evenodd" fill-opacity="1" /><path clip-path="url(#clip520)" d="M45.7664 572.871 Q39.4007 572.871 35.8996 575.512 Q32.3984 578.122 32.3984 582.865 Q32.3984 587.575 35.8996 590.217 Q39.4007 592.827 45.7664 592.827 Q52.1003 592.827 55.6014 590.217 Q59.1026 587.575 59.1026 582.865 Q59.1026 578.122 55.6014 575.512 Q52.1003 572.871 45.7664 572.871 M59.58 567.014 Q68.683 567.014 73.1071 571.056 Q77.5631 575.099 77.5631 583.438 Q77.5631 586.525 77.0857 589.262 Q76.6401 591.999 75.6852 594.578 L69.9879 594.578 Q71.3884 591.999 72.0568 589.485 Q72.7252 586.971 72.7252 584.361 Q72.7252 578.6 69.7015 575.735 Q66.7096 572.871 60.6303 572.871 L57.7339 572.871 Q60.885 574.685 62.4446 577.518 Q64.0042 580.35 64.0042 584.297 Q64.0042 590.854 59.0071 594.864 Q54.01 598.874 45.7664 598.874 Q37.491 598.874 32.4939 594.864 Q27.4968 590.854 27.4968 584.297 Q27.4968 580.35 29.0564 577.518 Q30.616 574.685 33.7671 572.871 L28.3562 572.871 L28.3562 567.014 L59.58 567.014 Z" fill="#000000" fill-rule="evenodd" fill-opacity="1" /><path clip-path="url(#clip520)" d="M14.5426 555.874 L14.5426 550.782 Q22.0542 546.007 29.2474 543.652 Q36.4406 541.265 43.5384 541.265 Q50.668 541.265 57.8931 543.652 Q65.1182 546.007 72.5979 550.782 L72.5979 555.874 Q65.3091 551.641 58.1159 549.572 Q50.8908 547.471 43.5384 547.471 Q36.186 547.471 29.0246 549.572 Q21.8632 551.641 14.5426 555.874 Z" fill="#000000" fill-rule="evenodd" fill-opacity="1" /><polyline clip-path="url(#clip522)" style="stroke:#ff0000; stroke-linecap:round; stroke-linejoin:round; stroke-width:4; stroke-opacity:1; fill:none" points="
  199.78,1327.65 225.41,1327.65 251.041,1327.65 276.672,1327.65 302.302,1327.65 327.933,1327.65 353.564,1327.65 379.194,1327.65 404.825,1327.65 430.456,1327.65 
  456.086,1327.65 481.717,1327.65 507.348,1327.65 532.978,1327.65 558.609,1327.65 584.24,1327.65 609.87,1327.65 635.501,1327.65 661.132,1327.65 686.762,1327.65 
  712.393,1327.65 738.024,1327.65 763.654,1327.65 789.285,1327.65 814.916,1327.65 840.546,1327.65 866.177,1327.65 891.808,1327.65 917.438,1327.65 943.069,1327.65 
  968.7,1327.65 994.33,1327.65 1019.96,1327.65 1045.59,1327.68 1071.22,1327.18 1096.85,1326.49 1122.48,1326.32 1148.11,1326.25 1173.75,1325.84 1199.38,1325.25 
  1225.01,1324 1250.64,1322.91 1276.27,1320.69 1301.9,1318.28 1327.53,1314.39 1353.16,1309.7 1378.79,1302.9 1404.42,1294.94 1430.05,1288.14 1455.68,1282.6 
  1481.31,1277.58 1506.94,1266.85 1532.57,1257.41 1558.21,1240.86 1583.84,1227.08 1609.47,1216.59 1635.1,1201.44 1660.73,1188.34 1686.36,1163.71 1711.99,1135.78 
  1737.62,1105.17 1763.25,1068.85 1788.88,1039.69 1814.51,1006.88 1840.14,970.915 1865.77,946.572 1891.4,914.423 1917.03,874.182 1942.67,837.223 1968.3,803.014 
  1993.93,768.428 2019.56,720.764 2045.19,664.241 2070.82,601.406 2096.45,547.7 2122.08,491.646 2147.71,461.855 2173.34,421.619 2198.97,386.013 2224.6,365.57 
  2250.23,317.915 
  "/>
<polyline clip-path="url(#clip522)" style="stroke:#008000; stroke-linecap:round; stroke-linejoin:round; stroke-width:4; stroke-opacity:1; fill:none" points="
  199.78,1327.65 225.41,1327.65 251.041,1327.65 276.672,1327.65 302.302,1327.65 327.933,1327.65 353.564,1327.65 379.194,1327.65 404.825,1327.65 430.456,1327.65 
  456.086,1327.65 481.717,1327.65 507.348,1327.65 532.978,1327.65 558.609,1327.65 584.24,1327.65 609.87,1327.65 635.501,1327.65 661.132,1327.65 686.762,1327.65 
  712.393,1327.65 738.024,1327.65 763.654,1327.65 789.285,1327.65 814.916,1327.65 840.546,1327.65 866.177,1327.65 891.808,1327.65 917.438,1327.65 943.069,1327.65 
  968.7,1327.65 994.33,1327.65 1019.96,1327.65 1045.59,1327.66 1071.22,1327.45 1096.85,1327.16 1122.48,1327.09 1148.11,1327.06 1173.75,1326.89 1199.38,1326.65 
  1225.01,1326.13 1250.64,1325.67 1276.27,1324.75 1301.9,1323.74 1327.53,1322.12 1353.16,1320.17 1378.79,1317.33 1404.42,1314.02 1430.05,1311.18 1455.68,1308.88 
  1481.31,1306.79 1506.94,1302.31 1532.57,1298.38 1558.21,1291.48 1583.84,1285.74 1609.47,1281.37 1635.1,1275.06 1660.73,1269.6 1686.36,1259.34 1711.99,1247.7 
  1737.62,1234.95 1763.25,1219.81 1788.88,1207.67 1814.51,1193.99 1840.14,1179.01 1865.77,1168.86 1891.4,1155.47 1917.03,1138.7 1942.67,1123.3 1968.3,1109.05 
  1993.93,1094.64 2019.56,1074.78 2045.19,1051.23 2070.82,1025.05 2096.45,1002.67 2122.08,979.312 2147.71,966.899 2173.34,950.134 2198.97,935.299 2224.6,926.781 
  2250.23,906.924 
  "/>
<polyline clip-path="url(#clip522)" style="stroke:#6ca6cd; stroke-linecap:round; stroke-linejoin:round; stroke-width:4; stroke-opacity:1; fill:none" points="
  199.78,1327.65 225.41,1327.65 251.041,1327.65 276.672,1327.65 302.302,1327.65 327.933,1327.65 353.564,1327.65 379.194,1327.65 404.825,1327.65 430.456,1327.65 
  456.086,1327.65 481.717,1327.65 507.348,1327.65 532.978,1327.65 558.609,1327.65 584.24,1327.65 609.87,1327.65 635.501,1327.65 661.132,1327.65 686.762,1327.65 
  712.393,1327.65 738.024,1327.65 763.654,1327.65 789.285,1327.65 814.916,1327.65 840.546,1327.65 866.177,1327.65 891.808,1327.65 917.438,1327.65 943.069,1327.65 
  968.7,1327.65 994.33,1327.65 1019.96,1327.65 1045.59,1327.65 1071.22,1327.53 1096.85,1327.36 1122.48,1327.31 1148.11,1327.3 1173.75,1327.19 1199.38,1327.05 
  1225.01,1326.73 1250.64,1326.46 1276.27,1325.91 1301.9,1325.3 1327.53,1324.33 1353.16,1323.16 1378.79,1321.46 1404.42,1319.47 1430.05,1317.77 1455.68,1316.38 
  1481.31,1315.13 1506.94,1312.45 1532.57,1310.09 1558.21,1305.95 1583.84,1302.5 1609.47,1299.88 1635.1,1296.09 1660.73,1292.82 1686.36,1286.66 1711.99,1279.68 
  1737.62,1272.03 1763.25,1262.95 1788.88,1255.66 1814.51,1247.45 1840.14,1238.46 1865.77,1232.38 1891.4,1224.34 1917.03,1214.28 1942.67,1205.04 1968.3,1196.49 
  1993.93,1187.84 2019.56,1175.92 2045.19,1161.79 2070.82,1146.09 2096.45,1132.66 2122.08,1118.65 2147.71,1111.2 2173.34,1101.14 2198.97,1092.24 2224.6,1087.13 
  2250.23,1075.21 
  "/>
<circle clip-path="url(#clip522)" cx="1404.42" cy="1269.29" r="14.4" fill="#ff0000" fill-rule="evenodd" fill-opacity="1" stroke="#000000" stroke-opacity="1" stroke-width="3.2"/>
<circle clip-path="url(#clip522)" cx="1558.21" cy="1218.54" r="14.4" fill="#ff0000" fill-rule="evenodd" fill-opacity="1" stroke="#000000" stroke-opacity="1" stroke-width="3.2"/>
<circle clip-path="url(#clip522)" cx="1737.62" cy="932.905" r="14.4" fill="#ff0000" fill-rule="evenodd" fill-opacity="1" stroke="#000000" stroke-opacity="1" stroke-width="3.2"/>
<circle clip-path="url(#clip522)" cx="1917.03" cy="884.002" r="14.4" fill="#ff0000" fill-rule="evenodd" fill-opacity="1" stroke="#000000" stroke-opacity="1" stroke-width="3.2"/>
<circle clip-path="url(#clip522)" cx="2096.45" cy="86.1857" r="14.4" fill="#ff0000" fill-rule="evenodd" fill-opacity="1" stroke="#000000" stroke-opacity="1" stroke-width="3.2"/>
<circle clip-path="url(#clip522)" cx="2275.86" cy="458.326" r="14.4" fill="#ff0000" fill-rule="evenodd" fill-opacity="1" stroke="#000000" stroke-opacity="1" stroke-width="3.2"/>
<circle clip-path="url(#clip522)" cx="1404.42" cy="1320.65" r="14.4" fill="#008000" fill-rule="evenodd" fill-opacity="1" stroke="#000000" stroke-opacity="1" stroke-width="3.2"/>
<circle clip-path="url(#clip522)" cx="1558.21" cy="1342.4" r="14.4" fill="#008000" fill-rule="evenodd" fill-opacity="1" stroke="#000000" stroke-opacity="1" stroke-width="3.2"/>
<circle clip-path="url(#clip522)" cx="1737.62" cy="1384.24" r="14.4" fill="#008000" fill-rule="evenodd" fill-opacity="1" stroke="#000000" stroke-opacity="1" stroke-width="3.2"/>
<circle clip-path="url(#clip522)" cx="1917.03" cy="1243.56" r="14.4" fill="#008000" fill-rule="evenodd" fill-opacity="1" stroke="#000000" stroke-opacity="1" stroke-width="3.2"/>
<circle clip-path="url(#clip522)" cx="2096.45" cy="891.01" r="14.4" fill="#008000" fill-rule="evenodd" fill-opacity="1" stroke="#000000" stroke-opacity="1" stroke-width="3.2"/>
<circle clip-path="url(#clip522)" cx="2275.86" cy="891.469" r="14.4" fill="#008000" fill-rule="evenodd" fill-opacity="1" stroke="#000000" stroke-opacity="1" stroke-width="3.2"/>
<circle clip-path="url(#clip522)" cx="1404.42" cy="1307.74" r="14.4" fill="#6ca6cd" fill-rule="evenodd" fill-opacity="1" stroke="#000000" stroke-opacity="1" stroke-width="3.2"/>
<circle clip-path="url(#clip522)" cx="1558.21" cy="1341.31" r="14.4" fill="#6ca6cd" fill-rule="evenodd" fill-opacity="1" stroke="#000000" stroke-opacity="1" stroke-width="3.2"/>
<circle clip-path="url(#clip522)" cx="1737.62" cy="1272.33" r="14.4" fill="#6ca6cd" fill-rule="evenodd" fill-opacity="1" stroke="#000000" stroke-opacity="1" stroke-width="3.2"/>
<circle clip-path="url(#clip522)" cx="1917.03" cy="1262.06" r="14.4" fill="#6ca6cd" fill-rule="evenodd" fill-opacity="1" stroke="#000000" stroke-opacity="1" stroke-width="3.2"/>
<circle clip-path="url(#clip522)" cx="2096.45" cy="1083.32" r="14.4" fill="#6ca6cd" fill-rule="evenodd" fill-opacity="1" stroke="#000000" stroke-opacity="1" stroke-width="3.2"/>
<circle clip-path="url(#clip522)" cx="2275.86" cy="1093.22" r="14.4" fill="#6ca6cd" fill-rule="evenodd" fill-opacity="1" stroke="#000000" stroke-opacity="1" stroke-width="3.2"/>
<path clip-path="url(#clip520)" d="
M246.769 455.989 L840.23 455.989 L840.23 93.1086 L246.769 93.1086  Z
  " fill="#ffffff" fill-rule="evenodd" fill-opacity="1"/>
<polyline clip-path="url(#clip520)" style="stroke:#000000; stroke-linecap:round; stroke-linejoin:round; stroke-width:4; stroke-opacity:1; fill:none" points="
  246.769,455.989 840.23,455.989 840.23,93.1086 246.769,93.1086 246.769,455.989 
  "/>
<polyline clip-path="url(#clip520)" style="stroke:#ff0000; stroke-linecap:round; stroke-linejoin:round; stroke-width:4; stroke-opacity:1; fill:none" points="
  270.976,144.949 416.216,144.949 
  "/>
<path clip-path="url(#clip520)" d="M462.668 128.803 L462.668 133.363 Q460.006 132.09 457.645 131.465 Q455.284 130.84 453.085 130.84 Q449.266 130.84 447.182 132.321 Q445.122 133.803 445.122 136.534 Q445.122 138.826 446.488 140.007 Q447.877 141.164 451.719 141.882 L454.543 142.46 Q459.775 143.456 462.252 145.979 Q464.752 148.479 464.752 152.692 Q464.752 157.715 461.372 160.307 Q458.016 162.9 451.511 162.9 Q449.057 162.9 446.28 162.344 Q443.525 161.789 440.562 160.701 L440.562 155.886 Q443.409 157.483 446.141 158.293 Q448.872 159.104 451.511 159.104 Q455.516 159.104 457.692 157.53 Q459.867 155.956 459.867 153.039 Q459.867 150.493 458.293 149.057 Q456.742 147.622 453.178 146.905 L450.33 146.349 Q445.099 145.307 442.761 143.085 Q440.423 140.863 440.423 136.905 Q440.423 132.321 443.641 129.682 Q446.881 127.044 452.553 127.044 Q454.983 127.044 457.506 127.483 Q460.029 127.923 462.668 128.803 Z" fill="#000000" fill-rule="evenodd" fill-opacity="1" /><path clip-path="url(#clip520)" d="M471.858 136.303 L476.117 136.303 L476.117 162.229 L471.858 162.229 L471.858 136.303 M471.858 126.21 L476.117 126.21 L476.117 131.604 L471.858 131.604 L471.858 126.21 Z" fill="#000000" fill-rule="evenodd" fill-opacity="1" /><path clip-path="url(#clip520)" d="M505.214 141.28 Q506.812 138.409 509.034 137.044 Q511.256 135.678 514.265 135.678 Q518.316 135.678 520.515 138.525 Q522.714 141.349 522.714 146.581 L522.714 162.229 L518.432 162.229 L518.432 146.719 Q518.432 142.993 517.113 141.187 Q515.793 139.382 513.085 139.382 Q509.775 139.382 507.853 141.581 Q505.932 143.78 505.932 147.576 L505.932 162.229 L501.65 162.229 L501.65 146.719 Q501.65 142.969 500.33 141.187 Q499.011 139.382 496.256 139.382 Q492.992 139.382 491.071 141.604 Q489.15 143.803 489.15 147.576 L489.15 162.229 L484.867 162.229 L484.867 136.303 L489.15 136.303 L489.15 140.331 Q490.608 137.946 492.645 136.812 Q494.682 135.678 497.483 135.678 Q500.307 135.678 502.275 137.113 Q504.265 138.548 505.214 141.28 Z" fill="#000000" fill-rule="evenodd" fill-opacity="1" /><path clip-path="url(#clip520)" d="M531.812 156.349 L536.696 156.349 L536.696 162.229 L531.812 162.229 L531.812 156.349 Z" fill="#000000" fill-rule="evenodd" fill-opacity="1" /><path clip-path="url(#clip520)" d="M561.348 126.21 L565.608 126.21 L565.608 162.229 L561.348 162.229 L561.348 126.21 Z" fill="#000000" fill-rule="evenodd" fill-opacity="1" /><path clip-path="url(#clip520)" d="M596.695 148.201 L596.695 150.284 L577.112 150.284 Q577.39 154.682 579.751 156.997 Q582.135 159.289 586.371 159.289 Q588.825 159.289 591.117 158.687 Q593.432 158.085 595.7 156.881 L595.7 160.909 Q593.408 161.881 591.001 162.391 Q588.594 162.9 586.117 162.9 Q579.913 162.9 576.279 159.289 Q572.668 155.678 572.668 149.52 Q572.668 143.155 576.094 139.428 Q579.543 135.678 585.376 135.678 Q590.607 135.678 593.64 139.057 Q596.695 142.414 596.695 148.201 M592.436 146.951 Q592.39 143.456 590.469 141.372 Q588.57 139.289 585.422 139.289 Q581.858 139.289 579.705 141.303 Q577.575 143.317 577.251 146.974 L592.436 146.951 Z" fill="#000000" fill-rule="evenodd" fill-opacity="1" /><path clip-path="url(#clip520)" d="M615.468 149.196 Q610.306 149.196 608.316 150.377 Q606.325 151.557 606.325 154.405 Q606.325 156.673 607.806 158.016 Q609.311 159.335 611.881 159.335 Q615.422 159.335 617.552 156.835 Q619.705 154.312 619.705 150.145 L619.705 149.196 L615.468 149.196 M623.964 147.437 L623.964 162.229 L619.705 162.229 L619.705 158.293 Q618.246 160.655 616.07 161.789 Q613.894 162.9 610.746 162.9 Q606.765 162.9 604.404 160.678 Q602.066 158.432 602.066 154.682 Q602.066 150.307 604.982 148.085 Q607.922 145.863 613.732 145.863 L619.705 145.863 L619.705 145.446 Q619.705 142.507 617.76 140.909 Q615.839 139.289 612.343 139.289 Q610.121 139.289 608.015 139.821 Q605.908 140.354 603.964 141.419 L603.964 137.483 Q606.302 136.581 608.501 136.141 Q610.7 135.678 612.783 135.678 Q618.408 135.678 621.186 138.594 Q623.964 141.511 623.964 147.437 Z" fill="#000000" fill-rule="evenodd" fill-opacity="1" /><path clip-path="url(#clip520)" d="M645.862 126.21 L645.862 129.752 L641.788 129.752 Q639.496 129.752 638.593 130.678 Q637.714 131.604 637.714 134.011 L637.714 136.303 L644.728 136.303 L644.728 139.613 L637.714 139.613 L637.714 162.229 L633.431 162.229 L633.431 139.613 L629.357 139.613 L629.357 136.303 L633.431 136.303 L633.431 134.497 Q633.431 130.169 635.445 128.201 Q637.459 126.21 641.834 126.21 L645.862 126.21 Z" fill="#000000" fill-rule="evenodd" fill-opacity="1" /><path clip-path="url(#clip520)" d="M684.681 141.28 Q686.278 138.409 688.5 137.044 Q690.723 135.678 693.732 135.678 Q697.783 135.678 699.982 138.525 Q702.181 141.349 702.181 146.581 L702.181 162.229 L697.899 162.229 L697.899 146.719 Q697.899 142.993 696.579 141.187 Q695.26 139.382 692.551 139.382 Q689.241 139.382 687.32 141.581 Q685.399 143.78 685.399 147.576 L685.399 162.229 L681.116 162.229 L681.116 146.719 Q681.116 142.969 679.797 141.187 Q678.477 139.382 675.723 139.382 Q672.459 139.382 670.538 141.604 Q668.616 143.803 668.616 147.576 L668.616 162.229 L664.334 162.229 L664.334 136.303 L668.616 136.303 L668.616 140.331 Q670.075 137.946 672.112 136.812 Q674.149 135.678 676.95 135.678 Q679.774 135.678 681.741 137.113 Q683.732 138.548 684.681 141.28 Z" fill="#000000" fill-rule="evenodd" fill-opacity="1" /><path clip-path="url(#clip520)" d="M722.459 149.196 Q717.297 149.196 715.306 150.377 Q713.315 151.557 713.315 154.405 Q713.315 156.673 714.797 158.016 Q716.301 159.335 718.871 159.335 Q722.412 159.335 724.542 156.835 Q726.695 154.312 726.695 150.145 L726.695 149.196 L722.459 149.196 M730.954 147.437 L730.954 162.229 L726.695 162.229 L726.695 158.293 Q725.236 160.655 723.06 161.789 Q720.885 162.9 717.736 162.9 Q713.755 162.9 711.394 160.678 Q709.056 158.432 709.056 154.682 Q709.056 150.307 711.973 148.085 Q714.912 145.863 720.723 145.863 L726.695 145.863 L726.695 145.446 Q726.695 142.507 724.75 140.909 Q722.829 139.289 719.334 139.289 Q717.111 139.289 715.005 139.821 Q712.898 140.354 710.954 141.419 L710.954 137.483 Q713.292 136.581 715.491 136.141 Q717.69 135.678 719.773 135.678 Q725.398 135.678 728.176 138.594 Q730.954 141.511 730.954 147.437 Z" fill="#000000" fill-rule="evenodd" fill-opacity="1" /><path clip-path="url(#clip520)" d="M756.255 137.067 L756.255 141.094 Q754.449 140.169 752.505 139.706 Q750.56 139.243 748.477 139.243 Q745.306 139.243 743.709 140.215 Q742.134 141.187 742.134 143.131 Q742.134 144.613 743.269 145.469 Q744.403 146.303 747.829 147.067 L749.287 147.391 Q753.824 148.363 755.722 150.145 Q757.644 151.905 757.644 155.076 Q757.644 158.687 754.773 160.793 Q751.926 162.9 746.926 162.9 Q744.843 162.9 742.574 162.483 Q740.329 162.09 737.829 161.28 L737.829 156.881 Q740.19 158.108 742.482 158.733 Q744.773 159.335 747.019 159.335 Q750.028 159.335 751.648 158.317 Q753.269 157.275 753.269 155.4 Q753.269 153.664 752.088 152.738 Q750.931 151.812 746.972 150.956 L745.491 150.608 Q741.533 149.775 739.773 148.062 Q738.014 146.326 738.014 143.317 Q738.014 139.659 740.607 137.669 Q743.199 135.678 747.968 135.678 Q750.329 135.678 752.412 136.025 Q754.495 136.372 756.255 137.067 Z" fill="#000000" fill-rule="evenodd" fill-opacity="1" /><path clip-path="url(#clip520)" d="M780.954 137.067 L780.954 141.094 Q779.148 140.169 777.204 139.706 Q775.259 139.243 773.176 139.243 Q770.005 139.243 768.407 140.215 Q766.833 141.187 766.833 143.131 Q766.833 144.613 767.968 145.469 Q769.102 146.303 772.528 147.067 L773.986 147.391 Q778.523 148.363 780.421 150.145 Q782.343 151.905 782.343 155.076 Q782.343 158.687 779.472 160.793 Q776.625 162.9 771.625 162.9 Q769.542 162.9 767.273 162.483 Q765.028 162.09 762.528 161.28 L762.528 156.881 Q764.889 158.108 767.181 158.733 Q769.472 159.335 771.718 159.335 Q774.727 159.335 776.347 158.317 Q777.968 157.275 777.968 155.4 Q777.968 153.664 776.787 152.738 Q775.63 151.812 771.671 150.956 L770.19 150.608 Q766.232 149.775 764.472 148.062 Q762.713 146.326 762.713 143.317 Q762.713 139.659 765.306 137.669 Q767.898 135.678 772.667 135.678 Q775.028 135.678 777.111 136.025 Q779.194 136.372 780.954 137.067 Z" fill="#000000" fill-rule="evenodd" fill-opacity="1" /><polyline clip-path="url(#clip520)" style="stroke:#008000; stroke-linecap:round; stroke-linejoin:round; stroke-width:4; stroke-opacity:1; fill:none" points="
  270.976,196.789 416.216,196.789 
  "/>
<path clip-path="url(#clip520)" d="M462.668 180.643 L462.668 185.203 Q460.006 183.93 457.645 183.305 Q455.284 182.68 453.085 182.68 Q449.266 182.68 447.182 184.161 Q445.122 185.643 445.122 188.374 Q445.122 190.666 446.488 191.847 Q447.877 193.004 451.719 193.722 L454.543 194.3 Q459.775 195.296 462.252 197.819 Q464.752 200.319 464.752 204.532 Q464.752 209.555 461.372 212.147 Q458.016 214.74 451.511 214.74 Q449.057 214.74 446.28 214.184 Q443.525 213.629 440.562 212.541 L440.562 207.726 Q443.409 209.323 446.141 210.133 Q448.872 210.944 451.511 210.944 Q455.516 210.944 457.692 209.37 Q459.867 207.796 459.867 204.879 Q459.867 202.333 458.293 200.897 Q456.742 199.462 453.178 198.745 L450.33 198.189 Q445.099 197.147 442.761 194.925 Q440.423 192.703 440.423 188.745 Q440.423 184.161 443.641 181.522 Q446.881 178.884 452.553 178.884 Q454.983 178.884 457.506 179.323 Q460.029 179.763 462.668 180.643 Z" fill="#000000" fill-rule="evenodd" fill-opacity="1" /><path clip-path="url(#clip520)" d="M471.858 188.143 L476.117 188.143 L476.117 214.069 L471.858 214.069 L471.858 188.143 M471.858 178.05 L476.117 178.05 L476.117 183.444 L471.858 183.444 L471.858 178.05 Z" fill="#000000" fill-rule="evenodd" fill-opacity="1" /><path clip-path="url(#clip520)" d="M505.214 193.12 Q506.812 190.249 509.034 188.884 Q511.256 187.518 514.265 187.518 Q518.316 187.518 520.515 190.365 Q522.714 193.189 522.714 198.421 L522.714 214.069 L518.432 214.069 L518.432 198.559 Q518.432 194.833 517.113 193.027 Q515.793 191.222 513.085 191.222 Q509.775 191.222 507.853 193.421 Q505.932 195.62 505.932 199.416 L505.932 214.069 L501.65 214.069 L501.65 198.559 Q501.65 194.809 500.33 193.027 Q499.011 191.222 496.256 191.222 Q492.992 191.222 491.071 193.444 Q489.15 195.643 489.15 199.416 L489.15 214.069 L484.867 214.069 L484.867 188.143 L489.15 188.143 L489.15 192.171 Q490.608 189.786 492.645 188.652 Q494.682 187.518 497.483 187.518 Q500.307 187.518 502.275 188.953 Q504.265 190.388 505.214 193.12 Z" fill="#000000" fill-rule="evenodd" fill-opacity="1" /><path clip-path="url(#clip520)" d="M531.812 208.189 L536.696 208.189 L536.696 214.069 L531.812 214.069 L531.812 208.189 Z" fill="#000000" fill-rule="evenodd" fill-opacity="1" /><path clip-path="url(#clip520)" d="M577.876 188.907 L577.876 192.934 Q576.071 192.009 574.126 191.546 Q572.182 191.083 570.098 191.083 Q566.927 191.083 565.33 192.055 Q563.756 193.027 563.756 194.971 Q563.756 196.453 564.89 197.309 Q566.024 198.143 569.45 198.907 L570.909 199.231 Q575.446 200.203 577.344 201.985 Q579.265 203.745 579.265 206.916 Q579.265 210.527 576.395 212.633 Q573.547 214.74 568.547 214.74 Q566.464 214.74 564.196 214.323 Q561.95 213.93 559.45 213.12 L559.45 208.721 Q561.811 209.948 564.103 210.573 Q566.395 211.175 568.64 211.175 Q571.649 211.175 573.27 210.157 Q574.89 209.115 574.89 207.24 Q574.89 205.504 573.709 204.578 Q572.552 203.652 568.594 202.796 L567.112 202.448 Q563.154 201.615 561.395 199.902 Q559.635 198.166 559.635 195.157 Q559.635 191.499 562.228 189.509 Q564.821 187.518 569.589 187.518 Q571.95 187.518 574.034 187.865 Q576.117 188.212 577.876 188.907 Z" fill="#000000" fill-rule="evenodd" fill-opacity="1" /><path clip-path="url(#clip520)" d="M590.26 180.782 L590.26 188.143 L599.033 188.143 L599.033 191.453 L590.26 191.453 L590.26 205.527 Q590.26 208.698 591.117 209.601 Q591.996 210.504 594.658 210.504 L599.033 210.504 L599.033 214.069 L594.658 214.069 Q589.728 214.069 587.853 212.24 Q585.978 210.388 585.978 205.527 L585.978 191.453 L582.853 191.453 L582.853 188.143 L585.978 188.143 L585.978 180.782 L590.26 180.782 Z" fill="#000000" fill-rule="evenodd" fill-opacity="1" /><path clip-path="url(#clip520)" d="M626.811 200.041 L626.811 202.124 L607.228 202.124 Q607.506 206.522 609.867 208.837 Q612.251 211.129 616.487 211.129 Q618.941 211.129 621.232 210.527 Q623.547 209.925 625.816 208.721 L625.816 212.749 Q623.524 213.721 621.117 214.231 Q618.709 214.74 616.232 214.74 Q610.029 214.74 606.394 211.129 Q602.783 207.518 602.783 201.36 Q602.783 194.995 606.209 191.268 Q609.658 187.518 615.492 187.518 Q620.723 187.518 623.755 190.897 Q626.811 194.254 626.811 200.041 M622.552 198.791 Q622.505 195.296 620.584 193.212 Q618.686 191.129 615.538 191.129 Q611.973 191.129 609.82 193.143 Q607.691 195.157 607.367 198.814 L622.552 198.791 Z" fill="#000000" fill-rule="evenodd" fill-opacity="1" /><path clip-path="url(#clip520)" d="M653.987 193.12 Q655.584 190.249 657.806 188.884 Q660.028 187.518 663.038 187.518 Q667.089 187.518 669.288 190.365 Q671.487 193.189 671.487 198.421 L671.487 214.069 L667.204 214.069 L667.204 198.559 Q667.204 194.833 665.885 193.027 Q664.565 191.222 661.857 191.222 Q658.547 191.222 656.626 193.421 Q654.704 195.62 654.704 199.416 L654.704 214.069 L650.422 214.069 L650.422 198.559 Q650.422 194.809 649.103 193.027 Q647.783 191.222 645.028 191.222 Q641.765 191.222 639.843 193.444 Q637.922 195.643 637.922 199.416 L637.922 214.069 L633.64 214.069 L633.64 188.143 L637.922 188.143 L637.922 192.171 Q639.38 189.786 641.417 188.652 Q643.454 187.518 646.255 187.518 Q649.079 187.518 651.047 188.953 Q653.038 190.388 653.987 193.12 Z" fill="#000000" fill-rule="evenodd" fill-opacity="1" /><path clip-path="url(#clip520)" d="M715.236 193.12 Q716.834 190.249 719.056 188.884 Q721.278 187.518 724.287 187.518 Q728.338 187.518 730.537 190.365 Q732.736 193.189 732.736 198.421 L732.736 214.069 L728.454 214.069 L728.454 198.559 Q728.454 194.833 727.135 193.027 Q725.815 191.222 723.107 191.222 Q719.797 191.222 717.875 193.421 Q715.954 195.62 715.954 199.416 L715.954 214.069 L711.672 214.069 L711.672 198.559 Q711.672 194.809 710.352 193.027 Q709.033 191.222 706.278 191.222 Q703.014 191.222 701.093 193.444 Q699.172 195.643 699.172 199.416 L699.172 214.069 L694.889 214.069 L694.889 188.143 L699.172 188.143 L699.172 192.171 Q700.63 189.786 702.667 188.652 Q704.704 187.518 707.505 187.518 Q710.329 187.518 712.297 188.953 Q714.287 190.388 715.236 193.12 Z" fill="#000000" fill-rule="evenodd" fill-opacity="1" /><path clip-path="url(#clip520)" d="M753.014 201.036 Q747.852 201.036 745.861 202.217 Q743.871 203.397 743.871 206.245 Q743.871 208.513 745.352 209.856 Q746.857 211.175 749.426 211.175 Q752.968 211.175 755.097 208.675 Q757.25 206.152 757.25 201.985 L757.25 201.036 L753.014 201.036 M761.509 199.277 L761.509 214.069 L757.25 214.069 L757.25 210.133 Q755.792 212.495 753.616 213.629 Q751.44 214.74 748.292 214.74 Q744.31 214.74 741.949 212.518 Q739.611 210.272 739.611 206.522 Q739.611 202.147 742.528 199.925 Q745.468 197.703 751.278 197.703 L757.25 197.703 L757.25 197.286 Q757.25 194.347 755.306 192.749 Q753.384 191.129 749.889 191.129 Q747.667 191.129 745.56 191.661 Q743.454 192.194 741.509 193.259 L741.509 189.323 Q743.847 188.421 746.046 187.981 Q748.246 187.518 750.329 187.518 Q755.954 187.518 758.732 190.434 Q761.509 193.351 761.509 199.277 Z" fill="#000000" fill-rule="evenodd" fill-opacity="1" /><path clip-path="url(#clip520)" d="M786.81 188.907 L786.81 192.934 Q785.005 192.009 783.06 191.546 Q781.116 191.083 779.032 191.083 Q775.861 191.083 774.264 192.055 Q772.69 193.027 772.69 194.971 Q772.69 196.453 773.824 197.309 Q774.958 198.143 778.384 198.907 L779.843 199.231 Q784.38 200.203 786.278 201.985 Q788.199 203.745 788.199 206.916 Q788.199 210.527 785.329 212.633 Q782.481 214.74 777.481 214.74 Q775.398 214.74 773.13 214.323 Q770.884 213.93 768.384 213.12 L768.384 208.721 Q770.745 209.948 773.037 210.573 Q775.329 211.175 777.574 211.175 Q780.583 211.175 782.204 210.157 Q783.824 209.115 783.824 207.24 Q783.824 205.504 782.643 204.578 Q781.486 203.652 777.528 202.796 L776.046 202.448 Q772.088 201.615 770.329 199.902 Q768.569 198.166 768.569 195.157 Q768.569 191.499 771.162 189.509 Q773.755 187.518 778.523 187.518 Q780.884 187.518 782.968 187.865 Q785.051 188.212 786.81 188.907 Z" fill="#000000" fill-rule="evenodd" fill-opacity="1" /><path clip-path="url(#clip520)" d="M811.509 188.907 L811.509 192.934 Q809.704 192.009 807.759 191.546 Q805.815 191.083 803.731 191.083 Q800.56 191.083 798.963 192.055 Q797.389 193.027 797.389 194.971 Q797.389 196.453 798.523 197.309 Q799.657 198.143 803.083 198.907 L804.542 199.231 Q809.079 200.203 810.977 201.985 Q812.898 203.745 812.898 206.916 Q812.898 210.527 810.028 212.633 Q807.18 214.74 802.18 214.74 Q800.097 214.74 797.829 214.323 Q795.583 213.93 793.083 213.12 L793.083 208.721 Q795.444 209.948 797.736 210.573 Q800.028 211.175 802.273 211.175 Q805.282 211.175 806.903 210.157 Q808.523 209.115 808.523 207.24 Q808.523 205.504 807.342 204.578 Q806.185 203.652 802.227 202.796 L800.745 202.448 Q796.787 201.615 795.028 199.902 Q793.268 198.166 793.268 195.157 Q793.268 191.499 795.861 189.509 Q798.454 187.518 803.222 187.518 Q805.583 187.518 807.667 187.865 Q809.75 188.212 811.509 188.907 Z" fill="#000000" fill-rule="evenodd" fill-opacity="1" /><polyline clip-path="url(#clip520)" style="stroke:#6ca6cd; stroke-linecap:round; stroke-linejoin:round; stroke-width:4; stroke-opacity:1; fill:none" points="
  270.976,248.629 416.216,248.629 
  "/>
<path clip-path="url(#clip520)" d="M462.668 232.483 L462.668 237.043 Q460.006 235.77 457.645 235.145 Q455.284 234.52 453.085 234.52 Q449.266 234.52 447.182 236.001 Q445.122 237.483 445.122 240.214 Q445.122 242.506 446.488 243.687 Q447.877 244.844 451.719 245.562 L454.543 246.14 Q459.775 247.136 462.252 249.659 Q464.752 252.159 464.752 256.372 Q464.752 261.395 461.372 263.987 Q458.016 266.58 451.511 266.58 Q449.057 266.58 446.28 266.024 Q443.525 265.469 440.562 264.381 L440.562 259.566 Q443.409 261.163 446.141 261.973 Q448.872 262.784 451.511 262.784 Q455.516 262.784 457.692 261.21 Q459.867 259.636 459.867 256.719 Q459.867 254.173 458.293 252.737 Q456.742 251.302 453.178 250.585 L450.33 250.029 Q445.099 248.987 442.761 246.765 Q440.423 244.543 440.423 240.585 Q440.423 236.001 443.641 233.362 Q446.881 230.724 452.553 230.724 Q454.983 230.724 457.506 231.163 Q460.029 231.603 462.668 232.483 Z" fill="#000000" fill-rule="evenodd" fill-opacity="1" /><path clip-path="url(#clip520)" d="M471.858 239.983 L476.117 239.983 L476.117 265.909 L471.858 265.909 L471.858 239.983 M471.858 229.89 L476.117 229.89 L476.117 235.284 L471.858 235.284 L471.858 229.89 Z" fill="#000000" fill-rule="evenodd" fill-opacity="1" /><path clip-path="url(#clip520)" d="M505.214 244.96 Q506.812 242.089 509.034 240.724 Q511.256 239.358 514.265 239.358 Q518.316 239.358 520.515 242.205 Q522.714 245.029 522.714 250.261 L522.714 265.909 L518.432 265.909 L518.432 250.399 Q518.432 246.673 517.113 244.867 Q515.793 243.062 513.085 243.062 Q509.775 243.062 507.853 245.261 Q505.932 247.46 505.932 251.256 L505.932 265.909 L501.65 265.909 L501.65 250.399 Q501.65 246.649 500.33 244.867 Q499.011 243.062 496.256 243.062 Q492.992 243.062 491.071 245.284 Q489.15 247.483 489.15 251.256 L489.15 265.909 L484.867 265.909 L484.867 239.983 L489.15 239.983 L489.15 244.011 Q490.608 241.626 492.645 240.492 Q494.682 239.358 497.483 239.358 Q500.307 239.358 502.275 240.793 Q504.265 242.228 505.214 244.96 Z" fill="#000000" fill-rule="evenodd" fill-opacity="1" /><path clip-path="url(#clip520)" d="M531.812 260.029 L536.696 260.029 L536.696 265.909 L531.812 265.909 L531.812 260.029 Z" fill="#000000" fill-rule="evenodd" fill-opacity="1" /><path clip-path="url(#clip520)" d="M576.371 243.964 Q575.654 243.548 574.797 243.362 Q573.964 243.154 572.946 243.154 Q569.334 243.154 567.39 245.515 Q565.469 247.853 565.469 252.251 L565.469 265.909 L561.186 265.909 L561.186 239.983 L565.469 239.983 L565.469 244.011 Q566.811 241.649 568.964 240.515 Q571.117 239.358 574.196 239.358 Q574.635 239.358 575.168 239.427 Q575.7 239.474 576.348 239.589 L576.371 243.964 Z" fill="#000000" fill-rule="evenodd" fill-opacity="1" /><path clip-path="url(#clip520)" d="M589.844 242.969 Q586.418 242.969 584.427 245.654 Q582.436 248.316 582.436 252.969 Q582.436 257.622 584.404 260.307 Q586.395 262.969 589.844 262.969 Q593.246 262.969 595.237 260.284 Q597.228 257.598 597.228 252.969 Q597.228 248.362 595.237 245.677 Q593.246 242.969 589.844 242.969 M589.844 239.358 Q595.399 239.358 598.57 242.969 Q601.742 246.58 601.742 252.969 Q601.742 259.335 598.57 262.969 Q595.399 266.58 589.844 266.58 Q584.265 266.58 581.094 262.969 Q577.946 259.335 577.946 252.969 Q577.946 246.58 581.094 242.969 Q584.265 239.358 589.844 239.358 Z" fill="#000000" fill-rule="evenodd" fill-opacity="1" /><path clip-path="url(#clip520)" d="M618.848 242.969 Q615.422 242.969 613.431 245.654 Q611.441 248.316 611.441 252.969 Q611.441 257.622 613.408 260.307 Q615.399 262.969 618.848 262.969 Q622.251 262.969 624.242 260.284 Q626.232 257.598 626.232 252.969 Q626.232 248.362 624.242 245.677 Q622.251 242.969 618.848 242.969 M618.848 239.358 Q624.404 239.358 627.575 242.969 Q630.746 246.58 630.746 252.969 Q630.746 259.335 627.575 262.969 Q624.404 266.58 618.848 266.58 Q613.269 266.58 610.098 262.969 Q606.95 259.335 606.95 252.969 Q606.95 246.58 610.098 242.969 Q613.269 239.358 618.848 239.358 Z" fill="#000000" fill-rule="evenodd" fill-opacity="1" /><path clip-path="url(#clip520)" d="M642.019 232.622 L642.019 239.983 L650.792 239.983 L650.792 243.293 L642.019 243.293 L642.019 257.367 Q642.019 260.538 642.876 261.441 Q643.755 262.344 646.417 262.344 L650.792 262.344 L650.792 265.909 L646.417 265.909 Q641.487 265.909 639.612 264.08 Q637.737 262.228 637.737 257.367 L637.737 243.293 L634.612 243.293 L634.612 239.983 L637.737 239.983 L637.737 232.622 L642.019 232.622 Z" fill="#000000" fill-rule="evenodd" fill-opacity="1" /><path clip-path="url(#clip520)" d="M691.649 244.96 Q693.246 242.089 695.468 240.724 Q697.69 239.358 700.699 239.358 Q704.75 239.358 706.949 242.205 Q709.149 245.029 709.149 250.261 L709.149 265.909 L704.866 265.909 L704.866 250.399 Q704.866 246.673 703.547 244.867 Q702.227 243.062 699.519 243.062 Q696.209 243.062 694.287 245.261 Q692.366 247.46 692.366 251.256 L692.366 265.909 L688.084 265.909 L688.084 250.399 Q688.084 246.649 686.764 244.867 Q685.445 243.062 682.69 243.062 Q679.426 243.062 677.505 245.284 Q675.584 247.483 675.584 251.256 L675.584 265.909 L671.301 265.909 L671.301 239.983 L675.584 239.983 L675.584 244.011 Q677.042 241.626 679.079 240.492 Q681.116 239.358 683.917 239.358 Q686.741 239.358 688.709 240.793 Q690.7 242.228 691.649 244.96 Z" fill="#000000" fill-rule="evenodd" fill-opacity="1" /><path clip-path="url(#clip520)" d="M729.426 252.876 Q724.264 252.876 722.273 254.057 Q720.283 255.237 720.283 258.085 Q720.283 260.353 721.764 261.696 Q723.269 263.015 725.838 263.015 Q729.38 263.015 731.51 260.515 Q733.662 257.992 733.662 253.825 L733.662 252.876 L729.426 252.876 M737.922 251.117 L737.922 265.909 L733.662 265.909 L733.662 261.973 Q732.204 264.335 730.028 265.469 Q727.852 266.58 724.704 266.58 Q720.723 266.58 718.361 264.358 Q716.023 262.112 716.023 258.362 Q716.023 253.987 718.94 251.765 Q721.88 249.543 727.69 249.543 L733.662 249.543 L733.662 249.126 Q733.662 246.187 731.718 244.589 Q729.797 242.969 726.301 242.969 Q724.079 242.969 721.973 243.501 Q719.866 244.034 717.922 245.099 L717.922 241.163 Q720.26 240.261 722.459 239.821 Q724.658 239.358 726.741 239.358 Q732.366 239.358 735.144 242.274 Q737.922 245.191 737.922 251.117 Z" fill="#000000" fill-rule="evenodd" fill-opacity="1" /><path clip-path="url(#clip520)" d="M763.222 240.747 L763.222 244.774 Q761.417 243.849 759.472 243.386 Q757.528 242.923 755.445 242.923 Q752.273 242.923 750.676 243.895 Q749.102 244.867 749.102 246.811 Q749.102 248.293 750.236 249.149 Q751.371 249.983 754.796 250.747 L756.255 251.071 Q760.792 252.043 762.69 253.825 Q764.611 255.585 764.611 258.756 Q764.611 262.367 761.741 264.473 Q758.894 266.58 753.894 266.58 Q751.81 266.58 749.542 266.163 Q747.296 265.77 744.796 264.96 L744.796 260.561 Q747.158 261.788 749.449 262.413 Q751.741 263.015 753.986 263.015 Q756.995 263.015 758.616 261.997 Q760.236 260.955 760.236 259.08 Q760.236 257.344 759.056 256.418 Q757.898 255.492 753.94 254.636 L752.458 254.288 Q748.5 253.455 746.741 251.742 Q744.982 250.006 744.982 246.997 Q744.982 243.339 747.574 241.349 Q750.167 239.358 754.935 239.358 Q757.296 239.358 759.38 239.705 Q761.463 240.052 763.222 240.747 Z" fill="#000000" fill-rule="evenodd" fill-opacity="1" /><path clip-path="url(#clip520)" d="M787.921 240.747 L787.921 244.774 Q786.116 243.849 784.171 243.386 Q782.227 242.923 780.144 242.923 Q776.972 242.923 775.375 243.895 Q773.801 244.867 773.801 246.811 Q773.801 248.293 774.935 249.149 Q776.069 249.983 779.495 250.747 L780.954 251.071 Q785.491 252.043 787.389 253.825 Q789.31 255.585 789.31 258.756 Q789.31 262.367 786.44 264.473 Q783.593 266.58 778.593 266.58 Q776.509 266.58 774.241 266.163 Q771.995 265.77 769.495 264.96 L769.495 260.561 Q771.857 261.788 774.148 262.413 Q776.44 263.015 778.685 263.015 Q781.694 263.015 783.315 261.997 Q784.935 260.955 784.935 259.08 Q784.935 257.344 783.755 256.418 Q782.597 255.492 778.639 254.636 L777.157 254.288 Q773.199 253.455 771.44 251.742 Q769.681 250.006 769.681 246.997 Q769.681 243.339 772.273 241.349 Q774.866 239.358 779.634 239.358 Q781.995 239.358 784.079 239.705 Q786.162 240.052 787.921 240.747 Z" fill="#000000" fill-rule="evenodd" fill-opacity="1" /><circle clip-path="url(#clip520)" cx="343.596" cy="300.469" r="23.04" fill="#ff0000" fill-rule="evenodd" fill-opacity="1" stroke="#000000" stroke-opacity="1" stroke-width="5.12"/>
<path clip-path="url(#clip520)" d="M456.442 286.36 Q451.349 286.36 448.34 290.156 Q445.354 293.952 445.354 300.503 Q445.354 307.031 448.34 310.827 Q451.349 314.624 456.442 314.624 Q461.534 314.624 464.497 310.827 Q467.483 307.031 467.483 300.503 Q467.483 293.952 464.497 290.156 Q461.534 286.36 456.442 286.36 M456.442 282.564 Q463.71 282.564 468.062 287.448 Q472.414 292.309 472.414 300.503 Q472.414 308.675 468.062 313.559 Q463.71 318.42 456.442 318.42 Q449.15 318.42 444.775 313.559 Q440.423 308.698 440.423 300.503 Q440.423 292.309 444.775 287.448 Q449.15 282.564 456.442 282.564 Z" fill="#000000" fill-rule="evenodd" fill-opacity="1" /><path clip-path="url(#clip520)" d="M498.154 304.809 Q498.154 300.11 496.21 297.448 Q494.289 294.763 490.909 294.763 Q487.529 294.763 485.585 297.448 Q483.664 300.11 483.664 304.809 Q483.664 309.508 485.585 312.193 Q487.529 314.855 490.909 314.855 Q494.289 314.855 496.21 312.193 Q498.154 309.508 498.154 304.809 M483.664 295.758 Q485.006 293.443 487.043 292.332 Q489.103 291.198 491.951 291.198 Q496.673 291.198 499.613 294.948 Q502.576 298.698 502.576 304.809 Q502.576 310.92 499.613 314.67 Q496.673 318.42 491.951 318.42 Q489.103 318.42 487.043 317.309 Q485.006 316.175 483.664 313.86 L483.664 317.749 L479.381 317.749 L479.381 281.73 L483.664 281.73 L483.664 295.758 Z" fill="#000000" fill-rule="evenodd" fill-opacity="1" /><path clip-path="url(#clip520)" d="M526.163 292.587 L526.163 296.614 Q524.358 295.689 522.413 295.226 Q520.469 294.763 518.386 294.763 Q515.214 294.763 513.617 295.735 Q512.043 296.707 512.043 298.651 Q512.043 300.133 513.177 300.989 Q514.312 301.823 517.738 302.587 L519.196 302.911 Q523.733 303.883 525.631 305.665 Q527.552 307.425 527.552 310.596 Q527.552 314.207 524.682 316.313 Q521.835 318.42 516.835 318.42 Q514.751 318.42 512.483 318.003 Q510.238 317.61 507.738 316.8 L507.738 312.401 Q510.099 313.628 512.39 314.253 Q514.682 314.855 516.927 314.855 Q519.937 314.855 521.557 313.837 Q523.177 312.795 523.177 310.92 Q523.177 309.184 521.997 308.258 Q520.839 307.332 516.881 306.476 L515.4 306.128 Q511.441 305.295 509.682 303.582 Q507.923 301.846 507.923 298.837 Q507.923 295.179 510.515 293.189 Q513.108 291.198 517.876 291.198 Q520.237 291.198 522.321 291.545 Q524.404 291.892 526.163 292.587 Z" fill="#000000" fill-rule="evenodd" fill-opacity="1" /><path clip-path="url(#clip520)" d="M534.936 311.869 L539.821 311.869 L539.821 317.749 L534.936 317.749 L534.936 311.869 Z" fill="#000000" fill-rule="evenodd" fill-opacity="1" /><path clip-path="url(#clip520)" d="M564.473 281.73 L568.733 281.73 L568.733 317.749 L564.473 317.749 L564.473 281.73 Z" fill="#000000" fill-rule="evenodd" fill-opacity="1" /><path clip-path="url(#clip520)" d="M599.82 303.721 L599.82 305.804 L580.237 305.804 Q580.515 310.202 582.876 312.517 Q585.26 314.809 589.496 314.809 Q591.95 314.809 594.242 314.207 Q596.557 313.605 598.825 312.401 L598.825 316.429 Q596.533 317.401 594.126 317.911 Q591.719 318.42 589.242 318.42 Q583.038 318.42 579.404 314.809 Q575.793 311.198 575.793 305.04 Q575.793 298.675 579.219 294.948 Q582.668 291.198 588.501 291.198 Q593.732 291.198 596.765 294.577 Q599.82 297.934 599.82 303.721 M595.561 302.471 Q595.515 298.976 593.594 296.892 Q591.695 294.809 588.547 294.809 Q584.983 294.809 582.83 296.823 Q580.7 298.837 580.376 302.494 L595.561 302.471 Z" fill="#000000" fill-rule="evenodd" fill-opacity="1" /><path clip-path="url(#clip520)" d="M618.593 304.716 Q613.431 304.716 611.441 305.897 Q609.45 307.077 609.45 309.925 Q609.45 312.193 610.931 313.536 Q612.436 314.855 615.006 314.855 Q618.547 314.855 620.677 312.355 Q622.83 309.832 622.83 305.665 L622.83 304.716 L618.593 304.716 M627.089 302.957 L627.089 317.749 L622.83 317.749 L622.83 313.813 Q621.371 316.175 619.195 317.309 Q617.019 318.42 613.871 318.42 Q609.89 318.42 607.529 316.198 Q605.191 313.952 605.191 310.202 Q605.191 305.827 608.107 303.605 Q611.047 301.383 616.857 301.383 L622.83 301.383 L622.83 300.966 Q622.83 298.027 620.885 296.429 Q618.964 294.809 615.468 294.809 Q613.246 294.809 611.14 295.341 Q609.033 295.874 607.089 296.939 L607.089 293.003 Q609.427 292.101 611.626 291.661 Q613.825 291.198 615.908 291.198 Q621.533 291.198 624.311 294.114 Q627.089 297.031 627.089 302.957 Z" fill="#000000" fill-rule="evenodd" fill-opacity="1" /><path clip-path="url(#clip520)" d="M648.987 281.73 L648.987 285.272 L644.913 285.272 Q642.621 285.272 641.718 286.198 Q640.839 287.124 640.839 289.531 L640.839 291.823 L647.853 291.823 L647.853 295.133 L640.839 295.133 L640.839 317.749 L636.556 317.749 L636.556 295.133 L632.482 295.133 L632.482 291.823 L636.556 291.823 L636.556 290.017 Q636.556 285.689 638.57 283.721 Q640.584 281.73 644.959 281.73 L648.987 281.73 Z" fill="#000000" fill-rule="evenodd" fill-opacity="1" /><path clip-path="url(#clip520)" d="M687.806 296.8 Q689.403 293.929 691.625 292.564 Q693.848 291.198 696.857 291.198 Q700.908 291.198 703.107 294.045 Q705.306 296.869 705.306 302.101 L705.306 317.749 L701.024 317.749 L701.024 302.239 Q701.024 298.513 699.704 296.707 Q698.385 294.902 695.676 294.902 Q692.366 294.902 690.445 297.101 Q688.524 299.3 688.524 303.096 L688.524 317.749 L684.241 317.749 L684.241 302.239 Q684.241 298.489 682.922 296.707 Q681.602 294.902 678.848 294.902 Q675.584 294.902 673.663 297.124 Q671.741 299.323 671.741 303.096 L671.741 317.749 L667.459 317.749 L667.459 291.823 L671.741 291.823 L671.741 295.851 Q673.2 293.466 675.237 292.332 Q677.274 291.198 680.075 291.198 Q682.899 291.198 684.866 292.633 Q686.857 294.068 687.806 296.8 Z" fill="#000000" fill-rule="evenodd" fill-opacity="1" /><path clip-path="url(#clip520)" d="M725.584 304.716 Q720.422 304.716 718.431 305.897 Q716.44 307.077 716.44 309.925 Q716.44 312.193 717.922 313.536 Q719.426 314.855 721.996 314.855 Q725.537 314.855 727.667 312.355 Q729.82 309.832 729.82 305.665 L729.82 304.716 L725.584 304.716 M734.079 302.957 L734.079 317.749 L729.82 317.749 L729.82 313.813 Q728.361 316.175 726.185 317.309 Q724.01 318.42 720.861 318.42 Q716.88 318.42 714.519 316.198 Q712.181 313.952 712.181 310.202 Q712.181 305.827 715.098 303.605 Q718.037 301.383 723.848 301.383 L729.82 301.383 L729.82 300.966 Q729.82 298.027 727.875 296.429 Q725.954 294.809 722.459 294.809 Q720.236 294.809 718.13 295.341 Q716.023 295.874 714.079 296.939 L714.079 293.003 Q716.417 292.101 718.616 291.661 Q720.815 291.198 722.898 291.198 Q728.523 291.198 731.301 294.114 Q734.079 297.031 734.079 302.957 Z" fill="#000000" fill-rule="evenodd" fill-opacity="1" /><path clip-path="url(#clip520)" d="M759.38 292.587 L759.38 296.614 Q757.574 295.689 755.63 295.226 Q753.685 294.763 751.602 294.763 Q748.431 294.763 746.834 295.735 Q745.259 296.707 745.259 298.651 Q745.259 300.133 746.394 300.989 Q747.528 301.823 750.954 302.587 L752.412 302.911 Q756.949 303.883 758.847 305.665 Q760.769 307.425 760.769 310.596 Q760.769 314.207 757.898 316.313 Q755.051 318.42 750.051 318.42 Q747.968 318.42 745.699 318.003 Q743.454 317.61 740.954 316.8 L740.954 312.401 Q743.315 313.628 745.607 314.253 Q747.898 314.855 750.144 314.855 Q753.153 314.855 754.773 313.837 Q756.394 312.795 756.394 310.92 Q756.394 309.184 755.213 308.258 Q754.056 307.332 750.097 306.476 L748.616 306.128 Q744.658 305.295 742.898 303.582 Q741.139 301.846 741.139 298.837 Q741.139 295.179 743.732 293.189 Q746.324 291.198 751.093 291.198 Q753.454 291.198 755.537 291.545 Q757.62 291.892 759.38 292.587 Z" fill="#000000" fill-rule="evenodd" fill-opacity="1" /><path clip-path="url(#clip520)" d="M784.079 292.587 L784.079 296.614 Q782.273 295.689 780.329 295.226 Q778.384 294.763 776.301 294.763 Q773.13 294.763 771.532 295.735 Q769.958 296.707 769.958 298.651 Q769.958 300.133 771.093 300.989 Q772.227 301.823 775.653 302.587 L777.111 302.911 Q781.648 303.883 783.546 305.665 Q785.468 307.425 785.468 310.596 Q785.468 314.207 782.597 316.313 Q779.75 318.42 774.75 318.42 Q772.667 318.42 770.398 318.003 Q768.153 317.61 765.653 316.8 L765.653 312.401 Q768.014 313.628 770.306 314.253 Q772.597 314.855 774.843 314.855 Q777.852 314.855 779.472 313.837 Q781.093 312.795 781.093 310.92 Q781.093 309.184 779.912 308.258 Q778.755 307.332 774.796 306.476 L773.315 306.128 Q769.357 305.295 767.597 303.582 Q765.838 301.846 765.838 298.837 Q765.838 295.179 768.431 293.189 Q771.023 291.198 775.792 291.198 Q778.153 291.198 780.236 291.545 Q782.319 291.892 784.079 292.587 Z" fill="#000000" fill-rule="evenodd" fill-opacity="1" /><circle clip-path="url(#clip520)" cx="343.596" cy="352.309" r="23.04" fill="#008000" fill-rule="evenodd" fill-opacity="1" stroke="#000000" stroke-opacity="1" stroke-width="5.12"/>
<path clip-path="url(#clip520)" d="M456.442 338.2 Q451.349 338.2 448.34 341.996 Q445.354 345.792 445.354 352.343 Q445.354 358.871 448.34 362.667 Q451.349 366.464 456.442 366.464 Q461.534 366.464 464.497 362.667 Q467.483 358.871 467.483 352.343 Q467.483 345.792 464.497 341.996 Q461.534 338.2 456.442 338.2 M456.442 334.404 Q463.71 334.404 468.062 339.288 Q472.414 344.149 472.414 352.343 Q472.414 360.515 468.062 365.399 Q463.71 370.26 456.442 370.26 Q449.15 370.26 444.775 365.399 Q440.423 360.538 440.423 352.343 Q440.423 344.149 444.775 339.288 Q449.15 334.404 456.442 334.404 Z" fill="#000000" fill-rule="evenodd" fill-opacity="1" /><path clip-path="url(#clip520)" d="M498.154 356.649 Q498.154 351.95 496.21 349.288 Q494.289 346.603 490.909 346.603 Q487.529 346.603 485.585 349.288 Q483.664 351.95 483.664 356.649 Q483.664 361.348 485.585 364.033 Q487.529 366.695 490.909 366.695 Q494.289 366.695 496.21 364.033 Q498.154 361.348 498.154 356.649 M483.664 347.598 Q485.006 345.283 487.043 344.172 Q489.103 343.038 491.951 343.038 Q496.673 343.038 499.613 346.788 Q502.576 350.538 502.576 356.649 Q502.576 362.76 499.613 366.51 Q496.673 370.26 491.951 370.26 Q489.103 370.26 487.043 369.149 Q485.006 368.015 483.664 365.7 L483.664 369.589 L479.381 369.589 L479.381 333.57 L483.664 333.57 L483.664 347.598 Z" fill="#000000" fill-rule="evenodd" fill-opacity="1" /><path clip-path="url(#clip520)" d="M526.163 344.427 L526.163 348.454 Q524.358 347.529 522.413 347.066 Q520.469 346.603 518.386 346.603 Q515.214 346.603 513.617 347.575 Q512.043 348.547 512.043 350.491 Q512.043 351.973 513.177 352.829 Q514.312 353.663 517.738 354.427 L519.196 354.751 Q523.733 355.723 525.631 357.505 Q527.552 359.265 527.552 362.436 Q527.552 366.047 524.682 368.153 Q521.835 370.26 516.835 370.26 Q514.751 370.26 512.483 369.843 Q510.238 369.45 507.738 368.64 L507.738 364.241 Q510.099 365.468 512.39 366.093 Q514.682 366.695 516.927 366.695 Q519.937 366.695 521.557 365.677 Q523.177 364.635 523.177 362.76 Q523.177 361.024 521.997 360.098 Q520.839 359.172 516.881 358.316 L515.4 357.968 Q511.441 357.135 509.682 355.422 Q507.923 353.686 507.923 350.677 Q507.923 347.019 510.515 345.029 Q513.108 343.038 517.876 343.038 Q520.237 343.038 522.321 343.385 Q524.404 343.732 526.163 344.427 Z" fill="#000000" fill-rule="evenodd" fill-opacity="1" /><path clip-path="url(#clip520)" d="M534.936 363.709 L539.821 363.709 L539.821 369.589 L534.936 369.589 L534.936 363.709 Z" fill="#000000" fill-rule="evenodd" fill-opacity="1" /><path clip-path="url(#clip520)" d="M581.001 344.427 L581.001 348.454 Q579.196 347.529 577.251 347.066 Q575.307 346.603 573.223 346.603 Q570.052 346.603 568.455 347.575 Q566.881 348.547 566.881 350.491 Q566.881 351.973 568.015 352.829 Q569.149 353.663 572.575 354.427 L574.034 354.751 Q578.571 355.723 580.469 357.505 Q582.39 359.265 582.39 362.436 Q582.39 366.047 579.52 368.153 Q576.672 370.26 571.672 370.26 Q569.589 370.26 567.321 369.843 Q565.075 369.45 562.575 368.64 L562.575 364.241 Q564.936 365.468 567.228 366.093 Q569.52 366.695 571.765 366.695 Q574.774 366.695 576.395 365.677 Q578.015 364.635 578.015 362.76 Q578.015 361.024 576.834 360.098 Q575.677 359.172 571.719 358.316 L570.237 357.968 Q566.279 357.135 564.52 355.422 Q562.76 353.686 562.76 350.677 Q562.76 347.019 565.353 345.029 Q567.946 343.038 572.714 343.038 Q575.075 343.038 577.158 343.385 Q579.242 343.732 581.001 344.427 Z" fill="#000000" fill-rule="evenodd" fill-opacity="1" /><path clip-path="url(#clip520)" d="M593.385 336.302 L593.385 343.663 L602.158 343.663 L602.158 346.973 L593.385 346.973 L593.385 361.047 Q593.385 364.218 594.242 365.121 Q595.121 366.024 597.783 366.024 L602.158 366.024 L602.158 369.589 L597.783 369.589 Q592.853 369.589 590.978 367.76 Q589.103 365.908 589.103 361.047 L589.103 346.973 L585.978 346.973 L585.978 343.663 L589.103 343.663 L589.103 336.302 L593.385 336.302 Z" fill="#000000" fill-rule="evenodd" fill-opacity="1" /><path clip-path="url(#clip520)" d="M629.936 355.561 L629.936 357.644 L610.353 357.644 Q610.631 362.042 612.992 364.357 Q615.376 366.649 619.612 366.649 Q622.066 366.649 624.357 366.047 Q626.672 365.445 628.941 364.241 L628.941 368.269 Q626.649 369.241 624.242 369.751 Q621.834 370.26 619.357 370.26 Q613.154 370.26 609.519 366.649 Q605.908 363.038 605.908 356.88 Q605.908 350.515 609.334 346.788 Q612.783 343.038 618.617 343.038 Q623.848 343.038 626.88 346.417 Q629.936 349.774 629.936 355.561 M625.677 354.311 Q625.63 350.816 623.709 348.732 Q621.811 346.649 618.663 346.649 Q615.098 346.649 612.945 348.663 Q610.816 350.677 610.492 354.334 L625.677 354.311 Z" fill="#000000" fill-rule="evenodd" fill-opacity="1" /><path clip-path="url(#clip520)" d="M657.112 348.64 Q658.709 345.769 660.931 344.404 Q663.153 343.038 666.163 343.038 Q670.214 343.038 672.413 345.885 Q674.612 348.709 674.612 353.941 L674.612 369.589 L670.329 369.589 L670.329 354.079 Q670.329 350.353 669.01 348.547 Q667.69 346.742 664.982 346.742 Q661.672 346.742 659.751 348.941 Q657.829 351.14 657.829 354.936 L657.829 369.589 L653.547 369.589 L653.547 354.079 Q653.547 350.329 652.228 348.547 Q650.908 346.742 648.153 346.742 Q644.89 346.742 642.968 348.964 Q641.047 351.163 641.047 354.936 L641.047 369.589 L636.765 369.589 L636.765 343.663 L641.047 343.663 L641.047 347.691 Q642.505 345.306 644.542 344.172 Q646.579 343.038 649.38 343.038 Q652.204 343.038 654.172 344.473 Q656.163 345.908 657.112 348.64 Z" fill="#000000" fill-rule="evenodd" fill-opacity="1" /><path clip-path="url(#clip520)" d="M718.361 348.64 Q719.959 345.769 722.181 344.404 Q724.403 343.038 727.412 343.038 Q731.463 343.038 733.662 345.885 Q735.861 348.709 735.861 353.941 L735.861 369.589 L731.579 369.589 L731.579 354.079 Q731.579 350.353 730.26 348.547 Q728.94 346.742 726.232 346.742 Q722.922 346.742 721 348.941 Q719.079 351.14 719.079 354.936 L719.079 369.589 L714.797 369.589 L714.797 354.079 Q714.797 350.329 713.477 348.547 Q712.158 346.742 709.403 346.742 Q706.139 346.742 704.218 348.964 Q702.297 351.163 702.297 354.936 L702.297 369.589 L698.014 369.589 L698.014 343.663 L702.297 343.663 L702.297 347.691 Q703.755 345.306 705.792 344.172 Q707.829 343.038 710.63 343.038 Q713.454 343.038 715.422 344.473 Q717.412 345.908 718.361 348.64 Z" fill="#000000" fill-rule="evenodd" fill-opacity="1" /><path clip-path="url(#clip520)" d="M756.139 356.556 Q750.977 356.556 748.986 357.737 Q746.996 358.917 746.996 361.765 Q746.996 364.033 748.477 365.376 Q749.982 366.695 752.551 366.695 Q756.093 366.695 758.222 364.195 Q760.375 361.672 760.375 357.505 L760.375 356.556 L756.139 356.556 M764.634 354.797 L764.634 369.589 L760.375 369.589 L760.375 365.653 Q758.917 368.015 756.741 369.149 Q754.565 370.26 751.417 370.26 Q747.435 370.26 745.074 368.038 Q742.736 365.792 742.736 362.042 Q742.736 357.667 745.653 355.445 Q748.593 353.223 754.403 353.223 L760.375 353.223 L760.375 352.806 Q760.375 349.867 758.431 348.269 Q756.509 346.649 753.014 346.649 Q750.792 346.649 748.685 347.181 Q746.579 347.714 744.634 348.779 L744.634 344.843 Q746.972 343.941 749.171 343.501 Q751.371 343.038 753.454 343.038 Q759.079 343.038 761.857 345.954 Q764.634 348.871 764.634 354.797 Z" fill="#000000" fill-rule="evenodd" fill-opacity="1" /><path clip-path="url(#clip520)" d="M789.935 344.427 L789.935 348.454 Q788.13 347.529 786.185 347.066 Q784.241 346.603 782.157 346.603 Q778.986 346.603 777.389 347.575 Q775.815 348.547 775.815 350.491 Q775.815 351.973 776.949 352.829 Q778.083 353.663 781.509 354.427 L782.968 354.751 Q787.505 355.723 789.403 357.505 Q791.324 359.265 791.324 362.436 Q791.324 366.047 788.454 368.153 Q785.606 370.26 780.606 370.26 Q778.523 370.26 776.255 369.843 Q774.009 369.45 771.509 368.64 L771.509 364.241 Q773.87 365.468 776.162 366.093 Q778.454 366.695 780.699 366.695 Q783.708 366.695 785.329 365.677 Q786.949 364.635 786.949 362.76 Q786.949 361.024 785.768 360.098 Q784.611 359.172 780.653 358.316 L779.171 357.968 Q775.213 357.135 773.454 355.422 Q771.694 353.686 771.694 350.677 Q771.694 347.019 774.287 345.029 Q776.88 343.038 781.648 343.038 Q784.009 343.038 786.093 343.385 Q788.176 343.732 789.935 344.427 Z" fill="#000000" fill-rule="evenodd" fill-opacity="1" /><path clip-path="url(#clip520)" d="M814.634 344.427 L814.634 348.454 Q812.829 347.529 810.884 347.066 Q808.94 346.603 806.856 346.603 Q803.685 346.603 802.088 347.575 Q800.514 348.547 800.514 350.491 Q800.514 351.973 801.648 352.829 Q802.782 353.663 806.208 354.427 L807.667 354.751 Q812.204 355.723 814.102 357.505 Q816.023 359.265 816.023 362.436 Q816.023 366.047 813.153 368.153 Q810.305 370.26 805.305 370.26 Q803.222 370.26 800.954 369.843 Q798.708 369.45 796.208 368.64 L796.208 364.241 Q798.569 365.468 800.861 366.093 Q803.153 366.695 805.398 366.695 Q808.407 366.695 810.028 365.677 Q811.648 364.635 811.648 362.76 Q811.648 361.024 810.467 360.098 Q809.31 359.172 805.352 358.316 L803.87 357.968 Q799.912 357.135 798.153 355.422 Q796.393 353.686 796.393 350.677 Q796.393 347.019 798.986 345.029 Q801.579 343.038 806.347 343.038 Q808.708 343.038 810.791 343.385 Q812.875 343.732 814.634 344.427 Z" fill="#000000" fill-rule="evenodd" fill-opacity="1" /><circle clip-path="url(#clip520)" cx="343.596" cy="404.149" r="23.04" fill="#6ca6cd" fill-rule="evenodd" fill-opacity="1" stroke="#000000" stroke-opacity="1" stroke-width="5.12"/>
<path clip-path="url(#clip520)" d="M456.442 390.04 Q451.349 390.04 448.34 393.836 Q445.354 397.632 445.354 404.183 Q445.354 410.711 448.34 414.507 Q451.349 418.304 456.442 418.304 Q461.534 418.304 464.497 414.507 Q467.483 410.711 467.483 404.183 Q467.483 397.632 464.497 393.836 Q461.534 390.04 456.442 390.04 M456.442 386.244 Q463.71 386.244 468.062 391.128 Q472.414 395.989 472.414 404.183 Q472.414 412.355 468.062 417.239 Q463.71 422.1 456.442 422.1 Q449.15 422.1 444.775 417.239 Q440.423 412.378 440.423 404.183 Q440.423 395.989 444.775 391.128 Q449.15 386.244 456.442 386.244 Z" fill="#000000" fill-rule="evenodd" fill-opacity="1" /><path clip-path="url(#clip520)" d="M498.154 408.489 Q498.154 403.79 496.21 401.128 Q494.289 398.443 490.909 398.443 Q487.529 398.443 485.585 401.128 Q483.664 403.79 483.664 408.489 Q483.664 413.188 485.585 415.873 Q487.529 418.535 490.909 418.535 Q494.289 418.535 496.21 415.873 Q498.154 413.188 498.154 408.489 M483.664 399.438 Q485.006 397.123 487.043 396.012 Q489.103 394.878 491.951 394.878 Q496.673 394.878 499.613 398.628 Q502.576 402.378 502.576 408.489 Q502.576 414.6 499.613 418.35 Q496.673 422.1 491.951 422.1 Q489.103 422.1 487.043 420.989 Q485.006 419.855 483.664 417.54 L483.664 421.429 L479.381 421.429 L479.381 385.41 L483.664 385.41 L483.664 399.438 Z" fill="#000000" fill-rule="evenodd" fill-opacity="1" /><path clip-path="url(#clip520)" d="M526.163 396.267 L526.163 400.294 Q524.358 399.369 522.413 398.906 Q520.469 398.443 518.386 398.443 Q515.214 398.443 513.617 399.415 Q512.043 400.387 512.043 402.331 Q512.043 403.813 513.177 404.669 Q514.312 405.503 517.738 406.267 L519.196 406.591 Q523.733 407.563 525.631 409.345 Q527.552 411.105 527.552 414.276 Q527.552 417.887 524.682 419.993 Q521.835 422.1 516.835 422.1 Q514.751 422.1 512.483 421.683 Q510.238 421.29 507.738 420.48 L507.738 416.081 Q510.099 417.308 512.39 417.933 Q514.682 418.535 516.927 418.535 Q519.937 418.535 521.557 417.517 Q523.177 416.475 523.177 414.6 Q523.177 412.864 521.997 411.938 Q520.839 411.012 516.881 410.156 L515.4 409.808 Q511.441 408.975 509.682 407.262 Q507.923 405.526 507.923 402.517 Q507.923 398.859 510.515 396.869 Q513.108 394.878 517.876 394.878 Q520.237 394.878 522.321 395.225 Q524.404 395.572 526.163 396.267 Z" fill="#000000" fill-rule="evenodd" fill-opacity="1" /><path clip-path="url(#clip520)" d="M534.936 415.549 L539.821 415.549 L539.821 421.429 L534.936 421.429 L534.936 415.549 Z" fill="#000000" fill-rule="evenodd" fill-opacity="1" /><path clip-path="url(#clip520)" d="M579.496 399.484 Q578.779 399.068 577.922 398.882 Q577.089 398.674 576.071 398.674 Q572.459 398.674 570.515 401.035 Q568.594 403.373 568.594 407.771 L568.594 421.429 L564.311 421.429 L564.311 395.503 L568.594 395.503 L568.594 399.531 Q569.936 397.169 572.089 396.035 Q574.242 394.878 577.321 394.878 Q577.76 394.878 578.293 394.947 Q578.825 394.994 579.473 395.109 L579.496 399.484 Z" fill="#000000" fill-rule="evenodd" fill-opacity="1" /><path clip-path="url(#clip520)" d="M592.969 398.489 Q589.543 398.489 587.552 401.174 Q585.561 403.836 585.561 408.489 Q585.561 413.142 587.529 415.827 Q589.52 418.489 592.969 418.489 Q596.371 418.489 598.362 415.804 Q600.353 413.118 600.353 408.489 Q600.353 403.882 598.362 401.197 Q596.371 398.489 592.969 398.489 M592.969 394.878 Q598.524 394.878 601.695 398.489 Q604.867 402.1 604.867 408.489 Q604.867 414.855 601.695 418.489 Q598.524 422.1 592.969 422.1 Q587.39 422.1 584.219 418.489 Q581.071 414.855 581.071 408.489 Q581.071 402.1 584.219 398.489 Q587.39 394.878 592.969 394.878 Z" fill="#000000" fill-rule="evenodd" fill-opacity="1" /><path clip-path="url(#clip520)" d="M621.973 398.489 Q618.547 398.489 616.556 401.174 Q614.566 403.836 614.566 408.489 Q614.566 413.142 616.533 415.827 Q618.524 418.489 621.973 418.489 Q625.376 418.489 627.367 415.804 Q629.357 413.118 629.357 408.489 Q629.357 403.882 627.367 401.197 Q625.376 398.489 621.973 398.489 M621.973 394.878 Q627.529 394.878 630.7 398.489 Q633.871 402.1 633.871 408.489 Q633.871 414.855 630.7 418.489 Q627.529 422.1 621.973 422.1 Q616.394 422.1 613.223 418.489 Q610.075 414.855 610.075 408.489 Q610.075 402.1 613.223 398.489 Q616.394 394.878 621.973 394.878 Z" fill="#000000" fill-rule="evenodd" fill-opacity="1" /><path clip-path="url(#clip520)" d="M645.144 388.142 L645.144 395.503 L653.917 395.503 L653.917 398.813 L645.144 398.813 L645.144 412.887 Q645.144 416.058 646.001 416.961 Q646.88 417.864 649.542 417.864 L653.917 417.864 L653.917 421.429 L649.542 421.429 Q644.612 421.429 642.737 419.6 Q640.862 417.748 640.862 412.887 L640.862 398.813 L637.737 398.813 L637.737 395.503 L640.862 395.503 L640.862 388.142 L645.144 388.142 Z" fill="#000000" fill-rule="evenodd" fill-opacity="1" /><path clip-path="url(#clip520)" d="M694.774 400.48 Q696.371 397.609 698.593 396.244 Q700.815 394.878 703.824 394.878 Q707.875 394.878 710.074 397.725 Q712.274 400.549 712.274 405.781 L712.274 421.429 L707.991 421.429 L707.991 405.919 Q707.991 402.193 706.672 400.387 Q705.352 398.582 702.644 398.582 Q699.334 398.582 697.412 400.781 Q695.491 402.98 695.491 406.776 L695.491 421.429 L691.209 421.429 L691.209 405.919 Q691.209 402.169 689.889 400.387 Q688.57 398.582 685.815 398.582 Q682.551 398.582 680.63 400.804 Q678.709 403.003 678.709 406.776 L678.709 421.429 L674.426 421.429 L674.426 395.503 L678.709 395.503 L678.709 399.531 Q680.167 397.146 682.204 396.012 Q684.241 394.878 687.042 394.878 Q689.866 394.878 691.834 396.313 Q693.825 397.748 694.774 400.48 Z" fill="#000000" fill-rule="evenodd" fill-opacity="1" /><path clip-path="url(#clip520)" d="M732.551 408.396 Q727.389 408.396 725.398 409.577 Q723.408 410.757 723.408 413.605 Q723.408 415.873 724.889 417.216 Q726.394 418.535 728.963 418.535 Q732.505 418.535 734.634 416.035 Q736.787 413.512 736.787 409.345 L736.787 408.396 L732.551 408.396 M741.046 406.637 L741.046 421.429 L736.787 421.429 L736.787 417.493 Q735.329 419.855 733.153 420.989 Q730.977 422.1 727.829 422.1 Q723.848 422.1 721.486 419.878 Q719.148 417.632 719.148 413.882 Q719.148 409.507 722.065 407.285 Q725.005 405.063 730.815 405.063 L736.787 405.063 L736.787 404.646 Q736.787 401.707 734.843 400.109 Q732.922 398.489 729.426 398.489 Q727.204 398.489 725.098 399.021 Q722.991 399.554 721.047 400.619 L721.047 396.683 Q723.385 395.781 725.584 395.341 Q727.783 394.878 729.866 394.878 Q735.491 394.878 738.269 397.794 Q741.046 400.711 741.046 406.637 Z" fill="#000000" fill-rule="evenodd" fill-opacity="1" /><path clip-path="url(#clip520)" d="M766.347 396.267 L766.347 400.294 Q764.542 399.369 762.597 398.906 Q760.653 398.443 758.57 398.443 Q755.398 398.443 753.801 399.415 Q752.227 400.387 752.227 402.331 Q752.227 403.813 753.361 404.669 Q754.495 405.503 757.921 406.267 L759.38 406.591 Q763.917 407.563 765.815 409.345 Q767.736 411.105 767.736 414.276 Q767.736 417.887 764.866 419.993 Q762.019 422.1 757.019 422.1 Q754.935 422.1 752.667 421.683 Q750.421 421.29 747.921 420.48 L747.921 416.081 Q750.283 417.308 752.574 417.933 Q754.866 418.535 757.111 418.535 Q760.12 418.535 761.741 417.517 Q763.361 416.475 763.361 414.6 Q763.361 412.864 762.181 411.938 Q761.023 411.012 757.065 410.156 L755.583 409.808 Q751.625 408.975 749.866 407.262 Q748.107 405.526 748.107 402.517 Q748.107 398.859 750.699 396.869 Q753.292 394.878 758.06 394.878 Q760.421 394.878 762.505 395.225 Q764.588 395.572 766.347 396.267 Z" fill="#000000" fill-rule="evenodd" fill-opacity="1" /><path clip-path="url(#clip520)" d="M791.046 396.267 L791.046 400.294 Q789.241 399.369 787.296 398.906 Q785.352 398.443 783.268 398.443 Q780.097 398.443 778.5 399.415 Q776.926 400.387 776.926 402.331 Q776.926 403.813 778.06 404.669 Q779.194 405.503 782.62 406.267 L784.079 406.591 Q788.616 407.563 790.514 409.345 Q792.435 411.105 792.435 414.276 Q792.435 417.887 789.565 419.993 Q786.718 422.1 781.718 422.1 Q779.634 422.1 777.366 421.683 Q775.12 421.29 772.62 420.48 L772.62 416.081 Q774.981 417.308 777.273 417.933 Q779.565 418.535 781.81 418.535 Q784.819 418.535 786.44 417.517 Q788.06 416.475 788.06 414.6 Q788.06 412.864 786.88 411.938 Q785.722 411.012 781.764 410.156 L780.282 409.808 Q776.324 408.975 774.565 407.262 Q772.806 405.526 772.806 402.517 Q772.806 398.859 775.398 396.869 Q777.991 394.878 782.759 394.878 Q785.12 394.878 787.204 395.225 Q789.287 395.572 791.046 396.267 Z" fill="#000000" fill-rule="evenodd" fill-opacity="1" /></svg>
